<svg xmlns="http://www.w3.org/2000/svg" width="32.901" height="52" viewBox="0 0 32.901 27.866"><g transform="translate(-354.32 -3898.42)"><path d="M16.189.5C7.542.5.5,6.411.5,13.678a11.9,11.9,0,0,0,3.251,8.044A23.426,23.426,0,0,1,.69,25.788a.588.588,0,0,0-.138.678.627.627,0,0,0,.577.388,14.531,14.531,0,0,0,7.379-1.681,17.944,17.944,0,0,0,7.681,1.681c8.647,0,15.687-5.91,15.687-13.176S24.836.5,16.189.5Z" transform="translate(354.595 3898.67)" fill="none" stroke="#8eb4e0" stroke-linecap="round" stroke-linejoin="round" stroke-width="1.5"/><path d="M13.006,13.131a1.039,1.039,0,1,1-1.039-1.039,1.038,1.038,0,0,1,1.039,1.039" transform="translate(354.313 3899.202)" fill="#8eb4e0"/><path d="M16.529,13.131a1.039,1.039,0,1,1-1.039-1.039,1.038,1.038,0,0,1,1.039,1.039" transform="translate(355.235 3899.202)" fill="#8eb4e0"/><path d="M20.052,13.131a1.039,1.039,0,1,1-1.039-1.039,1.038,1.038,0,0,1,1.039,1.039" transform="translate(356.157 3899.202)" fill="#8eb4e0"/></g></svg>