<svg xmlns="http://www.w3.org/2000/svg" width="47" height="52" viewBox="0 0 47 52">
  <g id="Icn_Arbo" data-name="Icn/Arbo" transform="translate(-29 19)">
    <g id="Ellipse_6" data-name="Ellipse 6" transform="translate(33 0)" fill="#545b65" stroke="#8eb4e0" stroke-width="1.5">
      <circle cx="3" cy="3" r="3" stroke="none"/>
      <circle cx="3" cy="3" r="2.25" fill="none"/>
    </g>
    <g id="Ellipse_28" data-name="Ellipse 28" transform="translate(29 -19)" fill="#545b65" stroke="#8eb4e0" stroke-width="1.5">
      <circle cx="4" cy="4" r="4" stroke="none"/>
      <circle cx="4" cy="4" r="3.25" fill="none"/>
    </g>
    <g id="Ellipse_29" data-name="Ellipse 29" transform="translate(62 -17)" fill="#545b65" stroke="#8eb4e0" stroke-width="1.5">
      <circle cx="4" cy="4" r="4" stroke="none"/>
      <circle cx="4" cy="4" r="3.25" fill="none"/>
    </g>
    <g id="Ellipse_30" data-name="Ellipse 30" transform="translate(66 3)" fill="#545b65" stroke="#8eb4e0" stroke-width="1.5">
      <circle cx="5" cy="5" r="5" stroke="none"/>
      <circle cx="5" cy="5" r="4.25" fill="none"/>
    </g>
    <g id="Ellipse_31" data-name="Ellipse 31" transform="translate(62 20)" fill="#545b65" stroke="#8eb4e0" stroke-width="1.5">
      <circle cx="4" cy="4" r="4" stroke="none"/>
      <circle cx="4" cy="4" r="3.25" fill="none"/>
    </g>
    <g id="Ellipse_7" data-name="Ellipse 7" transform="translate(32 22)" fill="#545b65" stroke="#8eb4e0" stroke-width="1.5">
      <circle cx="5.5" cy="5.5" r="5.5" stroke="none"/>
      <circle cx="5.5" cy="5.5" r="4.75" fill="none"/>
    </g>
    <g id="Ellipse_8" data-name="Ellipse 8" transform="translate(44 -1)" fill="#545b65" stroke="#8eb4e0" stroke-width="1.5">
      <circle cx="9" cy="9" r="9" stroke="none"/>
      <circle cx="9" cy="9" r="8.25" fill="none"/>
    </g>
    <path id="Tracé_386" data-name="Tracé 386" d="M59.242,14.425l5.271,6.856" transform="translate(-1 0)" fill="none" stroke="#8eb4e0" stroke-linecap="round" stroke-width="1.5"/>
    <path id="Tracé_387" data-name="Tracé 387" d="M62,8h4.543" fill="none" stroke="#8eb4e0" stroke-linecap="round" stroke-width="1.5"/>
    <path id="Tracé_388" data-name="Tracé 388" d="M57.141-.582,64-11.573" transform="translate(0.328 1.465)" fill="none" stroke="#8eb4e0" stroke-linecap="round" stroke-width="1.5"/>
    <path id="Tracé_389" data-name="Tracé 389" d="M46.467-.433,33.84-14.069" transform="translate(1.277 1.924)" fill="none" stroke="#8eb4e0" stroke-linecap="round" stroke-width="1.5"/>
    <path id="Tracé_384" data-name="Tracé 384" d="M773.18,3900.8l-6.547,8.484" transform="translate(-725.891 -3886)" fill="none" stroke="#8eb4e0" stroke-linecap="round" stroke-width="1.5"/>
    <path id="Tracé_385" data-name="Tracé 385" d="M817.461,3897.173l-6.27-1.828" transform="translate(-772.426 -3891.71)" fill="none" stroke="#8eb4e0" stroke-linecap="round" stroke-width="1.5"/>
  </g>
</svg>
