<svg id="Icn_User" data-name="Icn/User" xmlns="http://www.w3.org/2000/svg" xmlns:xlink="http://www.w3.org/1999/xlink" width="45" height="52" viewBox="0 0 45 29">
  <defs>
    <clipPath id="clip-path">
      <rect id="Rectangle_1970" data-name="Rectangle 1970" width="45" height="29" fill="none"/>
    </clipPath>
  </defs>
  <g id="Groupe_478" data-name="Groupe 478" clip-path="url(#clip-path)">
    <path id="Tracé_383" data-name="Tracé 383" d="M39,17H36.1A9,9,0,1,0,27.9,17H25c-.2,0-.406.011-.6.03-.107.011-.21.032-.315.048s-.184.024-.273.042c-.138.027-.272.066-.407.1-.052.013-.106.024-.158.04-.159.048-.314.107-.467.169-.024.009-.049.016-.074.027-.168.069-.331.148-.491.232l-.024.012a6.057,6.057,0,0,0-1.367,1h0A5.967,5.967,0,0,0,18,18H16.226a7.5,7.5,0,1,0-7.452,0H6a6.006,6.006,0,0,0-6,6v3.5A1.5,1.5,0,0,0,1.5,29h42A1.5,1.5,0,0,0,45,27.5V23a6.006,6.006,0,0,0-6-6M24.5,9A7.5,7.5,0,1,1,32,16.5,7.508,7.508,0,0,1,24.5,9m-18,2.5a6,6,0,1,1,6,6,6.006,6.006,0,0,1-6-6m-5,16V24A4.505,4.505,0,0,1,6,19.5H18a4.442,4.442,0,0,1,1.863.416,5.955,5.955,0,0,0-.626,1.432c-.008.027-.014.055-.022.083a6.119,6.119,0,0,0-.135.635c-.009.059-.019.118-.027.176A5.931,5.931,0,0,0,19,23v4.5Zm42,0h-23V23a4.441,4.441,0,0,1,.077-.761c.019-.1.04-.21.067-.312s.065-.217.1-.325a4.74,4.74,0,0,1,.372-.835,4.428,4.428,0,0,1,.423-.608.191.191,0,0,1,.018-.022,4.53,4.53,0,0,1,.517-.529,4.753,4.753,0,0,1,.625-.455c.011-.007.023-.011.034-.018a4.5,4.5,0,0,1,.653-.323c.076-.03.156-.048.234-.074A3.944,3.944,0,0,1,25,18.5H39A4.505,4.505,0,0,1,43.5,23Z" fill="#8eb4e0"/>
  </g>
</svg>
