<svg xmlns="http://www.w3.org/2000/svg" width="20" height="15" viewBox="0 0 20 15"><g transform="translate(-1197 -75)"><g transform="translate(1201 82)" fill="none" stroke="#8eb4e0" stroke-width="1"><rect width="12" height="8" rx="1" stroke="none"/><rect x="0.5" y="0.5" width="11" height="7" rx="0.5" fill="none"/></g><g transform="translate(1197 75)" fill="none"><path d="M9.375.5a1,1,0,0,1,1.249,0l7.149,5.719A1,1,0,0,1,17.149,8H2.851a1,1,0,0,1-.625-1.781Z" stroke="none"/><path d="M 10.00000858306885 1.28062105178833 L 10.00000858306885 1.280620574951172 L 2.850778579711914 7.000000953674316 L 17.14920806884766 7.000000953674316 L 10.00044918060303 1.280650615692139 C 10.00040912628174 1.280641078948975 10.00024318695068 1.280621528625488 10.00000858306885 1.28062105178833 M 10 0.2806234359741211 C 10.22104358673096 0.2806234359741211 10.44208908081055 0.353665828704834 10.62469863891602 0.4997506141662598 L 17.7739086151123 6.219130516052246 C 18.51204872131348 6.809640884399414 18.0944995880127 8.000000953674316 17.14921951293945 8.000000953674316 L 2.850778579711914 8.000000953674316 C 1.905498504638672 8.000000953674316 1.487949371337891 6.809640884399414 2.226089477539062 6.219130516052246 L 9.375308990478516 0.4997506141662598 C 9.557913780212402 0.353665828704834 9.778956413269043 0.2806234359741211 10 0.2806234359741211 Z" stroke="none" fill="#8eb4e0"/></g><g transform="translate(1207 85)" fill="none" stroke="#8eb4e0" stroke-width="1"><rect width="4" height="5" rx="1" stroke="none"/><rect x="0.5" y="0.5" width="3" height="4" rx="0.5" fill="none"/></g></g></svg>