<svg xmlns="http://www.w3.org/2000/svg" width="22.737" height="20" viewBox="0 0 22.737 20"><g transform="translate(0 -16.191)"><path d="M21.813,17.633c-4.662-1.229-10.5-2.3-15.125-.442A10.421,10.421,0,0,0,.01,26.1a9.289,9.289,0,0,0,6.167,9.118c4.54,1.855,8.965,1.106,12.317-2.607a18.755,18.755,0,0,0,3.79-6.485c1-3,.183-5.774-.914-8.62-.251-.651-1.311-.368-1.057.291,1.065,2.764,1.866,5.409.81,8.323a17.025,17.025,0,0,1-4.25,6.574,8.649,8.649,0,0,1-7.914,2.3c-2.547-.6-5.194-1.793-6.621-4.081-2.653-4.252-.748-9.585,3.4-12.034,4.527-2.677,10.992-1.448,15.788-.183a.549.549,0,0,0,.291-1.057Z" transform="translate(0)" fill="#b1bec0"/><g transform="translate(15.45 23.823)"><g transform="translate(0 0)"><path d="M169.639,100.132a.113.113,0,0,0,0-.225.113.113,0,0,0,0,.225Z" transform="translate(-169.53 -99.907)" fill="#b1bec0"/></g></g><g transform="translate(7.999 23.924)"><g transform="translate(0 0)"><path d="M87.886,101.237a.113.113,0,0,0,0-.225.113.113,0,0,0,0,.225Z" transform="translate(-87.777 -101.012)" fill="#b1bec0"/></g></g><path d="M49.307,113.135c.619,1.51,1.386,3.265,2.968,3.978a4.59,4.59,0,0,0,4.525-.253c.462-.344.011-1.129-.457-.781a3.809,3.809,0,0,1-4.033.039,6.676,6.676,0,0,1-2.131-3.223c-.218-.531-1.093-.3-.872.24Z" transform="translate(-44.243 -86.971)" fill="#b1bec0"/><g transform="translate(15.45 23.823)"><g transform="translate(0 0)"><path d="M169.639,100.132a.113.113,0,0,0,0-.225.113.113,0,0,0,0,.225Z" transform="translate(-169.53 -99.907)" fill="#b1bec0"/></g></g><g transform="translate(7.999 23.557)"><path d="M87.886,97.219a.113.113,0,0,0,0-.225.113.113,0,0,0,0,.225Z" transform="translate(-87.777 -96.994)" fill="#b1bec0"/></g><path d="M160.571,90.752a.853.853,0,0,0,1.324-.2.823.823,0,0,0-.037-.8.855.855,0,0,0-.686-.406.454.454,0,0,0-.452.452.464.464,0,0,0,.452.452.144.144,0,0,1-.09-.026q.055.034.014,0t.008.013q-.043-.059-.018-.018t-.009-.025q.018.077,0-.014c-.011.084.01-.035.019-.057q.052-.06.018-.025t.024-.018c-.086.055.056-.046-.02,0q.094-.01.017-.007l.052.008q-.073-.021.012.012-.063-.039.01.009a.452.452,0,0,0-.64.64Z" transform="translate(-145.62 -66.373)" fill="#b1bec0"/><path d="M80.031,89.56a.866.866,0,0,0,1.446.407A.819.819,0,0,0,81.549,89a.849.849,0,0,0-.906-.4.456.456,0,0,0-.316.556.462.462,0,0,0,.556.316c-.022,0-.129-.009-.086,0,.061.017-.071-.034-.014,0s-.064-.045,0,.008c-.024-.019-.042-.048-.008-.005.063.08-.017-.044,0,.006s0-.1,0,0a.336.336,0,0,1,.023-.1l.031-.036q-.044.042,0,.005c.011-.006.1-.044.059-.032s-.084,0,.014,0c-.061,0,0,0,.026.009-.014,0-.1-.024-.038,0s-.006,0-.017-.011c-.035-.041.065.062.006,0,.018.018.048.067.017.018.048.076.017.04.01-.011A.455.455,0,0,0,80.347,89a.465.465,0,0,0-.316.556Z" transform="translate(-72.624 -65.678)" fill="#b1bec0"/></g></svg>