<svg xmlns="http://www.w3.org/2000/svg" width="1em" height="1em" viewBox="0 0 81 80"><g fill="none" stroke-dasharray="0.5 3"><path d="M44.35,0a18,18,0,0,1,6.172,1.091l7.242,2.643a18,18,0,0,1,5.418,3.136L69.1,11.849a18,18,0,0,1,4.01,4.792l3.87,6.722a18,18,0,0,1,2.128,5.864l1.346,7.656a18,18,0,0,1,0,6.234l-1.346,7.656a18,18,0,0,1-2.128,5.864l-3.87,6.722a18,18,0,0,1-4.01,4.792l-5.916,4.978a18,18,0,0,1-5.418,3.136l-7.242,2.643A18,18,0,0,1,44.35,80h-7.7a18,18,0,0,1-6.172-1.091l-7.242-2.643a18,18,0,0,1-5.418-3.136L11.9,68.151a18,18,0,0,1-4.01-4.792l-3.87-6.722a18,18,0,0,1-2.128-5.864L.548,43.117a18,18,0,0,1,0-6.234l1.346-7.656a18,18,0,0,1,2.128-5.864l3.87-6.722a18,18,0,0,1,4.01-4.792l5.916-4.978a18,18,0,0,1,5.418-3.136l7.242-2.643A18,18,0,0,1,36.65,0Z" stroke="none"/><path d="M 36.64976119995117 0 L 37.14976119995117 0 L 37.14976119995117 1 L 36.64976119995117 1 L 36.64976119995117 0 C 36.64976119995117 0 36.64976119995117 0 36.64976119995117 0 Z M 40.14976119995117 0 L 40.64976119995117 0 L 40.64976119995117 1 L 40.14976119995117 1 L 40.14976119995117 0 Z M 43.64976119995117 0 L 44.14976119995117 0 L 44.14976119995117 1 L 43.64976119995117 1 L 43.64976119995117 0 Z M 47.13851547241211 0.2172698974609375 C 47.18910217285156 0.2252044677734375 47.2397575378418 0.233367919921875 47.29027557373047 0.241729736328125 C 47.29031753540039 0.2417373657226562 47.29034042358398 0.2417373657226562 47.29038238525391 0.2417449951171875 C 47.2944221496582 0.2424163818359375 47.29841613769531 0.2430801391601562 47.30245590209961 0.2437515258789062 C 47.30246353149414 0.2437515258789062 47.30247116088867 0.2437515258789062 47.30248260498047 0.2437515258789062 C 47.4123420715332 0.26202392578125 47.52183151245117 0.2812728881835938 47.6313362121582 0.30157470703125 L 47.44905853271484 1.284820556640625 C 47.29499435424805 1.256256103515625 47.13839340209961 1.229469299316406 46.98360443115234 1.2052001953125 L 47.13851547241211 0.2172698974609375 Z M 50.52200317382812 1.091140747070312 L 50.17942810058594 2.030632019042969 L 50.52231597900391 1.091255187988281 C 50.52231597900391 1.091255187988281 50.52231597900391 1.091255187988281 50.52231597900391 1.091255187988281 L 50.52231597900391 1.091255187988281 C 50.52231597900391 1.091255187988281 50.99168395996094 1.262588500976562 50.99168395996094 1.262588500976562 L 50.6487922668457 2.20196533203125 L 50.17942810058594 2.030632019042969 L 50.17942810058594 2.030632019042969 L 50.17942810058594 2.030632019042969 L 50.17942810058594 2.030632019042969 L 50.17942810058594 2.030632019042969 L 50.52200317382812 1.091140747070312 L 50.17912673950195 2.030525207519531 L 50.52200317382812 1.091140747070312 L 50.52200317382812 1.091140747070312 Z M 53.8098030090332 2.291267395019531 C 53.8098030090332 2.291267395019531 53.87556457519531 2.315269470214844 53.95788192749023 2.345314025878906 L 53.95925140380859 2.345817565917969 C 53.9624137878418 2.346969604492188 53.96560287475586 2.348136901855469 53.96881103515625 2.34930419921875 L 53.96882629394531 2.349311828613281 C 53.97050476074219 2.349929809570312 53.97216033935547 2.350532531738281 53.97385406494141 2.351150512695312 L 53.97424697875977 2.351287841796875 C 53.97512817382812 2.351615905761719 53.97602081298828 2.351936340332031 53.97690582275391 2.352264404296875 L 54.27949142456055 2.462715148925781 L 53.93660354614258 3.402091979980469 L 53.46691513061523 3.230644226074219 L 53.8098030090332 2.291267395019531 Z M 57.09761428833008 3.491401672363281 C 57.09761428833008 3.491401672363281 57.56730651855469 3.662841796875 57.56730651855469 3.662841796875 L 57.22441482543945 4.602210998535156 L 56.75472640991211 4.430763244628906 L 57.09761428833008 3.491401672363281 Z M 60.30094909667969 4.890464782714844 C 60.34163665771484 4.912956237792969 60.38222503662109 4.935600280761719 60.42273712158203 4.958412170410156 C 60.42351531982422 4.958847045898438 60.42425918579102 4.959266662597656 60.42504119873047 4.959709167480469 C 60.42837142944336 4.961585998535156 60.43169403076172 4.963455200195312 60.43502426147461 4.96533203125 C 60.4359130859375 4.965835571289062 60.43677520751953 4.966323852539062 60.43766403198242 4.966819763183594 C 60.43947219848633 4.967842102050781 60.4412841796875 4.968864440917969 60.44309234619141 4.969886779785156 C 60.44431304931641 4.9705810546875 60.44552612304688 4.971260070800781 60.44675064086914 4.971954345703125 C 60.44915771484375 4.973312377929688 60.45155715942383 4.97467041015625 60.45396423339844 4.976028442382812 C 60.45563507080078 4.976974487304688 60.45742797851562 4.977989196777344 60.45909881591797 4.978935241699219 C 60.46048736572266 4.979721069335938 60.46189117431641 4.980514526367188 60.46327972412109 4.981300354003906 C 60.46550750732422 4.982566833496094 60.46768951416016 4.983802795410156 60.46991729736328 4.985061645507812 C 60.47153472900391 4.985984802246094 60.47315979003906 4.986900329589844 60.47477722167969 4.987823486328125 C 60.47666931152344 4.9888916015625 60.47843551635742 4.989898681640625 60.48032379150391 4.990966796875 C 60.48164367675781 4.991722106933594 60.48293304443359 4.992454528808594 60.4842529296875 4.993202209472656 C 60.48692321777344 4.994720458984375 60.48960876464844 4.996246337890625 60.49227905273438 4.997764587402344 C 60.49337387084961 4.998390197753906 60.49448394775391 4.999015808105469 60.49557876586914 4.999641418457031 C 60.49768829345703 5.000846862792969 60.49982833862305 5.002059936523438 60.50193786621094 5.003265380859375 C 60.50293731689453 5.003829956054688 60.50392150878906 5.00439453125 60.50491714477539 5.004959106445312 C 60.50769424438477 5.006546020507812 60.51062393188477 5.008216857910156 60.51339721679688 5.009796142578125 C 60.514404296875 5.0103759765625 60.51543426513672 5.010955810546875 60.51644134521484 5.01153564453125 C 60.51877212524414 5.012863159179688 60.52110290527344 5.014198303222656 60.52343368530273 5.015525817871094 C 60.52462768554688 5.016212463378906 60.52581405639648 5.016891479492188 60.52700805664062 5.017570495605469 C 60.52933502197266 5.018905639648438 60.53181457519531 5.02032470703125 60.53414916992188 5.021652221679688 C 60.53536605834961 5.022354125976562 60.53659820556641 5.023056030273438 60.53781890869141 5.023757934570312 C 60.54048156738281 5.025283813476562 60.54304504394531 5.026748657226562 60.54570770263672 5.028274536132812 C 60.54682922363281 5.028923034667969 60.54794311523438 5.029556274414062 60.54906463623047 5.030204772949219 C 60.55105972290039 5.031349182128906 60.55287551879883 5.032386779785156 60.55487060546875 5.033538818359375 C 60.55624389648438 5.034324645996094 60.5576171875 5.035110473632812 60.55899047851562 5.035903930664062 C 60.56143188476562 5.037300109863281 60.56381988525391 5.038681030273438 60.56626129150391 5.040077209472656 C 60.56789398193359 5.041015625 60.56951904296875 5.041954040527344 60.57115173339844 5.042892456054688 C 60.57247924804688 5.043663024902344 60.57379913330078 5.044418334960938 60.57512664794922 5.045181274414062 C 60.57852172851562 5.047142028808594 60.58190155029297 5.049087524414062 60.58529663085938 5.051048278808594 C 60.58584976196289 5.051361083984375 60.58621978759766 5.051582336425781 60.58677673339844 5.051895141601562 C 60.58880233764648 5.053070068359375 60.59082794189453 5.054237365722656 60.59285736083984 5.055404663085938 C 60.59340667724609 5.05572509765625 60.59391021728516 5.056015014648438 60.59446716308594 5.05633544921875 C 60.6414680480957 5.083480834960938 60.68836212158203 5.110855102539062 60.73511505126953 5.138420104980469 L 60.22718048095703 5.999809265136719 C 60.09221649169922 5.920219421386719 59.95424652099609 5.8414306640625 59.81712341308594 5.765632629394531 L 60.30094909667969 4.890464782714844 Z M 63.18067169189453 6.870063781738281 L 62.53685760498047 7.63525390625 L 63.18067169189453 6.870063781738281 Z M 63.18067169189453 6.870063781738281 L 62.53805923461914 7.636268615722656 L 63.18193817138672 6.871131896972656 C 63.18193817138672 6.871131896972656 63.18193817138672 6.871131896972656 63.18193817138672 6.871131896972656 L 63.18193817138672 6.871131896972656 C 63.18193817138672 6.871131896972656 63.56323623657227 7.192008972167969 63.56323623657227 7.192008972167969 L 62.91935729980469 7.957130432128906 L 62.53805923461914 7.636268615722656 L 62.53805923461914 7.636268615722656 L 62.53805923461914 7.636268615722656 L 62.53805923461914 7.636268615722656 L 62.53805923461914 7.636268615722656 L 63.18067169189453 6.870063781738281 Z M 65.85862731933594 9.123634338378906 C 65.85862731933594 9.123634338378906 65.91690063476562 9.17266845703125 65.98796844482422 9.232475280761719 L 65.98826599121094 9.23272705078125 C 65.99018859863281 9.234344482421875 65.99213409423828 9.235984802246094 65.99407196044922 9.237617492675781 L 66.24118804931641 9.445571899414062 L 65.59731292724609 10.21070098876953 L 65.21475219726562 9.888763427734375 L 65.85862731933594 9.123634338378906 Z M 68.53658294677734 11.377197265625 C 68.53658294677734 11.377197265625 68.71730041503906 11.52927398681641 68.83031463623047 11.62438201904297 L 68.83058929443359 11.62461090087891 C 68.83179473876953 11.62562561035156 68.83299255371094 11.62663269042969 68.83417510986328 11.62763214111328 L 68.83436584472656 11.62778472900391 C 68.83535766601562 11.62861633300781 68.83632659912109 11.62944030761719 68.83730316162109 11.63026428222656 L 68.83873748779297 11.6314697265625 C 68.83906555175781 11.63174438476562 68.83941650390625 11.63204193115234 68.83974456787109 11.63231658935547 L 68.84071350097656 11.63313293457031 C 68.84074401855469 11.63315582275391 68.84078216552734 11.63318634033203 68.84081268310547 11.63320922851562 L 68.91914367675781 11.69913482666016 L 68.2752685546875 12.46426391601562 L 67.8927001953125 12.14231872558594 L 68.53658294677734 11.377197265625 Z M 71.06957244873047 13.78615570068359 C 71.1585693359375 13.88812255859375 71.24639129638672 13.99108123779297 71.33305358886719 14.09503173828125 C 71.33313751220703 14.09513092041016 71.33323669433594 14.09524536132812 71.33332061767578 14.09534454345703 C 71.33969879150391 14.10298919677734 71.3460693359375 14.11065673828125 71.35243988037109 14.11831665039062 C 71.35333251953125 14.11939239501953 71.35437774658203 14.12064361572266 71.35527038574219 14.12172698974609 C 71.35723876953125 14.12409210205078 71.35919189453125 14.12644958496094 71.36116027832031 14.12881469726562 C 71.36262512207031 14.13058471679688 71.36392974853516 14.13215637207031 71.36539459228516 14.13392639160156 C 71.36671447753906 14.13551330566406 71.36801910400391 14.13709259033203 71.36933898925781 14.13868713378906 C 71.37723541259766 14.14821624755859 71.38519287109375 14.15784454345703 71.39306640625 14.16738891601562 L 70.62165832519531 14.80373382568359 C 70.52195739746094 14.68286895751953 70.41917419433594 14.56172180175781 70.31614685058594 14.44367980957031 L 71.06957244873047 13.78615570068359 Z M 73.10088348388672 16.62962341308594 C 73.10146331787109 16.63063430786133 73.10205078125 16.63164901733398 73.10263824462891 16.63265991210938 C 73.10423278808594 16.63543701171875 73.10590362548828 16.63833618164062 73.10750579833984 16.64110946655273 L 73.10750579833984 16.64110946655273 C 73.10750579833984 16.64110946655273 73.35034942626953 17.06295394897461 73.35034942626953 17.06295394897461 L 72.48370361328125 17.56186676025391 L 72.24085998535156 17.14003372192383 L 72.23460388183594 17.12918853759766 L 73.10088348388672 16.62962341308594 Z M 74.84710693359375 19.66289901733398 C 74.84710693359375 19.66289901733398 74.88807678222656 19.73406600952148 74.93679809570312 19.81870269775391 L 74.93754577636719 19.81999969482422 C 74.93788909912109 19.82058715820312 74.93821716308594 19.82116317749023 74.93855285644531 19.82175064086914 L 74.93861389160156 19.82185363769531 C 74.93889617919922 19.82234191894531 74.93919372558594 19.82286071777344 74.93947601318359 19.82334518432617 L 75.09656524658203 20.09622573852539 L 74.22991180419922 20.59514617919922 L 73.98046112060547 20.16182327270508 L 74.84710693359375 19.66289901733398 Z M 76.59331512451172 22.6961669921875 C 76.59331512451172 22.6961669921875 76.84278106689453 23.12950134277344 76.84278106689453 23.12950134277344 L 75.97612762451172 23.62841033935547 L 75.72666931152344 23.19508743286133 L 76.59331512451172 22.6961669921875 Z M 78.15525817871094 25.82349014282227 C 78.16365051269531 25.8450813293457 78.1719970703125 25.86668014526367 78.18030548095703 25.88830184936523 C 78.18048858642578 25.88877487182617 78.18058013916016 25.88901138305664 78.18076324462891 25.88948822021484 C 78.18155670166016 25.89154815673828 78.18234252929688 25.89358901977539 78.18312835693359 25.89564895629883 C 78.18395233154297 25.89779281616211 78.18482971191406 25.90008544921875 78.18565368652344 25.90222930908203 C 78.18624114990234 25.90376663208008 78.18683624267578 25.90531921386719 78.18742370605469 25.90685653686523 C 78.18843078613281 25.90947341918945 78.18937683105469 25.91195678710938 78.19037628173828 25.91457366943359 C 78.19065856933594 25.9152946472168 78.19093322753906 25.9160270690918 78.19120788574219 25.916748046875 C 78.19257354736328 25.92031860351562 78.19388580322266 25.92375564575195 78.19525146484375 25.92732620239258 C 78.19527435302734 25.92739486694336 78.19530487060547 25.92745971679688 78.19532775878906 25.92752838134766 C 78.22135162353516 25.99573135375977 78.24693298339844 26.06402969360352 78.27212524414062 26.13254165649414 C 78.27242279052734 26.13335418701172 78.27272033691406 26.1341552734375 78.27301788330078 26.13496780395508 C 78.27407073974609 26.13784027099609 78.27515411376953 26.14079666137695 78.27621459960938 26.14366912841797 C 78.27662658691406 26.14479446411133 78.27703094482422 26.14590835571289 78.27744293212891 26.14703750610352 C 78.27823638916016 26.14918899536133 78.27911376953125 26.15159225463867 78.2799072265625 26.15374374389648 C 78.28056335449219 26.15554046630859 78.28121948242188 26.15732574462891 78.28187561035156 26.15912246704102 C 78.28226470947266 26.16019821166992 78.28256988525391 26.16103363037109 78.28296661376953 26.16211318969727 C 78.28440093994141 26.16603851318359 78.28583526611328 26.16997146606445 78.28726959228516 26.17389678955078 C 78.28739929199219 26.17425537109375 78.28742980957031 26.1743278503418 78.28755950927734 26.17468643188477 C 78.30180358886719 26.2137336730957 78.31591796875 26.25284194946289 78.32989501953125 26.29198837280273 L 77.38811492919922 26.62821197509766 C 77.33543395996094 26.48065567016602 77.27994537353516 26.331787109375 77.22318267822266 26.18574523925781 L 78.15525817871094 25.82349014282227 Z M 79.09902954101562 29.18814468383789 C 79.09939575195312 29.19021987915039 79.09976196289062 29.19229507446289 79.10013580322266 29.19437026977539 C 79.10208129882812 29.20532608032227 79.10401153564453 29.21623229980469 79.10593414306641 29.22718811035156 L 79.10593414306641 29.22718811035156 C 79.10593414306641 29.22718811035156 79.18564605712891 29.68058776855469 79.18564605712891 29.68058776855469 L 78.20075988769531 29.85375595092773 L 78.12104797363281 29.40035629272461 L 78.11451721191406 29.36347961425781 L 79.09902954101562 29.18814468383789 Z M 79.70513916015625 32.6352653503418 C 79.70513916015625 32.6352653503418 79.72544097900391 32.75074768066406 79.74638366699219 32.86986541748047 L 79.74642944335938 32.87009048461914 C 79.74669647216797 32.87163925170898 79.74697113037109 32.87319564819336 79.74724578857422 32.8747444152832 L 79.79172515869141 33.12772369384766 L 78.80682373046875 33.30087661743164 L 78.72024536132812 32.80843353271484 L 79.70513916015625 32.6352653503418 Z M 80.31120300292969 36.08240127563477 C 80.31120300292969 36.08240127563477 80.34933471679688 36.29925918579102 80.37499237060547 36.44515991210938 L 80.39778900146484 36.57484436035156 L 79.41289520263672 36.74801254272461 L 79.32631683349609 36.25555419921875 L 80.31120300292969 36.08240127563477 Z M 80.71839141845703 39.55440139770508 C 80.71944427490234 39.5969123840332 80.72034454345703 39.63940811157227 80.72109222412109 39.68192672729492 C 80.72109985351562 39.68218994140625 80.72110748291016 39.68246078491211 80.72110748291016 39.6827278137207 C 80.72124481201172 39.69036483764648 80.72136688232422 39.69778823852539 80.72149658203125 39.70542526245117 C 80.72151184082031 39.70629119873047 80.72152709960938 39.7071647644043 80.72153472900391 39.70802688598633 C 80.72159576416016 39.71146392822266 80.72164916992188 39.71511459350586 80.72170257568359 39.71855163574219 C 80.72171783447266 39.71912384033203 80.72172546386719 39.71968841552734 80.72173309326172 39.72025680541992 C 80.72177886962891 39.72318649291992 80.72182464599609 39.72616195678711 80.72187042236328 39.72908782958984 C 80.72188568115234 39.73028945922852 80.72190093994141 39.73147201538086 80.721923828125 39.73266983032227 C 80.72196960449219 39.73585510253906 80.72201538085938 39.73907089233398 80.72206115722656 39.74225234985352 C 80.72207641601562 39.74352645874023 80.72209930419922 39.74479675292969 80.72211456298828 39.74607086181641 C 80.72214508056641 39.74823379516602 80.72217559814453 39.75039672851562 80.72220611572266 39.7525634765625 C 80.72222900390625 39.75409698486328 80.72224426269531 39.75566101074219 80.72226715087891 39.75719833374023 C 80.72230529785156 39.76012420654297 80.72234344482422 39.76288986206055 80.72238159179688 39.76581954956055 C 80.72240447998047 39.76755523681641 80.72242736816406 39.7692985534668 80.72245025634766 39.77103805541992 C 80.72247314453125 39.77268981933594 80.72249603271484 39.77446365356445 80.72251129150391 39.77611541748047 C 80.72254943847656 39.77886199951172 80.72257995605469 39.78159332275391 80.72261047363281 39.78433990478516 C 80.72263336181641 39.7861213684082 80.72265625 39.78776931762695 80.72267913818359 39.78955459594727 C 80.72270202636719 39.79149627685547 80.72271728515625 39.79345703125 80.72274017333984 39.79540252685547 C 80.72275543212891 39.79680252075195 80.72277069091797 39.79800796508789 80.72278594970703 39.79940795898438 C 80.72282409667969 39.80282592773438 80.72286224365234 39.80624389648438 80.722900390625 39.80966186523438 C 80.72290802001953 39.81080627441406 80.72292327880859 39.81208038330078 80.72293853759766 39.81322479248047 C 80.72296142578125 39.8153190612793 80.72297668457031 39.81740570068359 80.72299957275391 39.81949996948242 C 80.72301483154297 39.82064437866211 80.7230224609375 39.82182693481445 80.72303771972656 39.82297134399414 C 80.72306823730469 39.82645034790039 80.72309875488281 39.8299446105957 80.72313690185547 39.83342361450195 C 80.72314453125 39.83469390869141 80.72315979003906 39.83595657348633 80.72316741943359 39.83723068237305 C 80.72319030761719 39.83928298950195 80.72320556640625 39.84133529663086 80.72322082519531 39.84339141845703 C 80.72322845458984 39.84390258789062 80.72323608398438 39.8445930480957 80.72323608398438 39.8451042175293 C 80.72327423095703 39.84918212890625 80.72330474853516 39.85324478149414 80.72334289550781 39.85732650756836 C 80.72335052490234 39.85872650146484 80.72335815429688 39.8598747253418 80.72337341308594 39.86127471923828 C 80.72339630126953 39.86417388916016 80.72341156005859 39.8670654296875 80.72343444824219 39.86996459960938 C 80.72344970703125 39.87174606323242 80.72346496582031 39.87358474731445 80.72347259521484 39.87537002563477 C 80.72348785400391 39.87718963623047 80.72349548339844 39.87902069091797 80.7235107421875 39.88084411621094 C 80.72352600097656 39.88262557983398 80.72353363037109 39.8842887878418 80.72354125976562 39.88607406616211 C 80.72356414794922 39.88862609863281 80.72357940673828 39.89118957519531 80.72359466552734 39.89374542236328 C 80.72360229492188 39.89565277099609 80.72361755371094 39.89766311645508 80.72362518310547 39.89957427978516 C 80.7236328125 39.90125274658203 80.72364044189453 39.90292739868164 80.72365570068359 39.90460586547852 C 80.72367095947266 39.90727996826172 80.72367858886719 39.90981292724609 80.72369384765625 39.9124870300293 C 80.72370147705078 39.91403579711914 80.72370910644531 39.91556930541992 80.72371673583984 39.91711807250977 C 80.72372436523438 39.91953659057617 80.72373962402344 39.92195892333984 80.72374725341797 39.92438125610352 C 80.7237548828125 39.92563247680664 80.7237548828125 39.9268798828125 80.72376251220703 39.92813110351562 C 80.72377777099609 39.93143844604492 80.72378540039062 39.93465042114258 80.72380065917969 39.93795776367188 C 80.72380065917969 39.93889617919922 80.72380828857422 39.93982315063477 80.72380828857422 39.94075775146484 C 80.72381591796875 39.94368743896484 80.72382354736328 39.9466438293457 80.72383880615234 39.9495735168457 C 80.72383880615234 39.95031356811523 80.72383880615234 39.95104598999023 80.72383880615234 39.95178604125977 C 80.72385406494141 39.95535278320312 80.72386169433594 39.95907211303711 80.72386932373047 39.96263885498047 C 80.72386932373047 39.96318817138672 80.72386932373047 39.96374130249023 80.72386932373047 39.96429061889648 C 80.72388458251953 39.9720573425293 80.72389984130859 39.97998809814453 80.72389984130859 39.98775482177734 C 80.72389984130859 39.98776245117188 80.72389984130859 39.98779296875 80.72389984130859 39.9878044128418 C 80.72391510009766 40.00995635986328 80.72389221191406 40.03220367431641 80.72382354736328 40.05435562133789 L 79.72382354736328 40.05133438110352 C 79.72430419921875 39.89465713500977 79.72257232666016 39.73579025268555 79.71868896484375 39.57915496826172 L 80.71839141845703 39.55440139770508 Z M 79.47975158691406 42.87085723876953 L 80.46537780761719 43.03972244262695 C 80.46096801757812 43.06546783447266 80.45650482177734 43.09120178222656 80.45198059082031 43.1169319152832 C 80.45198059082031 43.1169319152832 80.45170593261719 43.11850357055664 80.45118713378906 43.12145614624023 L 80.45114898681641 43.12168502807617 C 80.45101928710938 43.12242126464844 80.45087432861328 43.12324142456055 80.45071411132812 43.12414169311523 L 80.45071411132812 43.12414169311523 C 80.4505615234375 43.12500762939453 80.45039367675781 43.12594604492188 80.45021820068359 43.12695693969727 L 80.45011138916016 43.1275749206543 C 80.45010375976562 43.12761688232422 80.45009613037109 43.12766265869141 80.45008850097656 43.12770843505859 L 80.44999694824219 43.12822723388672 C 80.44996643066406 43.12837982177734 80.44994354248047 43.12853622436523 80.44991302490234 43.12869262695312 L 80.44981384277344 43.12926483154297 C 80.44979858398438 43.12934112548828 80.44979095458984 43.12940979003906 80.44977569580078 43.12948608398438 L 80.37896728515625 43.53222274780273 L 79.39407348632812 43.35905456542969 L 79.46709442138672 42.94376754760742 L 79.47975158691406 42.87085723876953 Z M 78.87458038330078 46.3137321472168 L 79.85948181152344 46.48690032958984 L 79.77290344238281 46.97934341430664 L 78.78800201416016 46.80617904663086 L 78.87458038330078 46.3137321472168 Z M 78.26851654052734 49.7608642578125 L 79.25341796875 49.93402099609375 L 79.16683197021484 50.42646789550781 L 78.18193817138672 50.25331115722656 L 78.26851654052734 49.7608642578125 Z M 77.50858306884766 53.02241134643555 L 78.45745086669922 53.33810043334961 C 78.43974304199219 53.39128875732422 78.42177581787109 53.44446563720703 78.40358734130859 53.49748611450195 C 78.40354156494141 53.49761199951172 78.40350341796875 53.49773788452148 78.40345764160156 53.49786376953125 C 78.40217590332031 53.50160217285156 78.40085601806641 53.50543594360352 78.39957427978516 53.50917053222656 C 78.39954376220703 53.50926971435547 78.39949798583984 53.5093879699707 78.39946746826172 53.50948333740234 C 78.39839172363281 53.51261520385742 78.39720916748047 53.51605224609375 78.39612579345703 53.51918411254883 C 78.39580535888672 53.52011871337891 78.39547729492188 53.52106857299805 78.39515686035156 53.52200317382812 C 78.39407348632812 53.52513122558594 78.39307403564453 53.52803802490234 78.39199066162109 53.53116607666016 C 78.39154815673828 53.53246688842773 78.39109039306641 53.53377914428711 78.39064025878906 53.53507614135742 C 78.38997650146484 53.53700256347656 78.389404296875 53.53865051269531 78.38874053955078 53.54058074951172 C 78.38786315917969 53.54310607910156 78.38699340820312 53.54563140869141 78.38611602783203 53.54815673828125 C 78.38557434082031 53.54972076416016 78.38500213623047 53.55136871337891 78.38446044921875 53.55293273925781 C 78.38375091552734 53.55498886108398 78.38303375244141 53.55705261230469 78.38231658935547 53.55910491943359 C 78.38202667236328 53.55995178222656 78.38178253173828 53.56064987182617 78.38149261474609 53.56149291992188 C 78.36299896240234 53.61472702026367 78.34426116943359 53.66788101196289 78.32527160644531 53.72093963623047 C 78.32492828369141 53.72190093994141 78.32452392578125 53.72303009033203 78.32418060302734 53.72399139404297 C 78.32318878173828 53.72674942016602 78.32220458984375 53.72950744628906 78.32121276855469 53.73226928710938 C 78.32048034667969 53.73430633544922 78.31984710693359 53.73606872558594 78.31911468505859 53.73810958862305 C 78.31864166259766 53.73942947387695 78.31817626953125 53.74073791503906 78.31769561767578 53.74205780029297 C 78.31658172607422 53.74517822265625 78.31546783447266 53.74827575683594 78.31434631347656 53.75139617919922 C 78.31431579589844 53.75147247314453 78.31428527832031 53.75154495239258 78.31426239013672 53.75162124633789 C 78.31292724609375 53.75533676147461 78.31166076660156 53.75883483886719 78.31032562255859 53.76255035400391 C 78.31023406982422 53.7628059387207 78.31012725830078 53.76309204101562 78.31003570556641 53.76334762573242 C 78.30437469482422 53.77904510498047 78.29874420166016 53.79459381103516 78.29303741455078 53.81027603149414 L 77.35330200195312 53.46836853027344 C 77.40686798095703 53.32112121582031 77.45911407470703 53.17108917236328 77.50858306884766 53.02241134643555 Z M 76.16767120361328 56.03810119628906 L 77.03765869140625 56.53116607666016 C 77.03627014160156 56.53361511230469 77.034912109375 56.5360107421875 77.03352355957031 56.5384521484375 C 77.03253173828125 56.54020690917969 77.03153991699219 56.54195785522461 77.03054809570312 56.54370880126953 C 77.03022766113281 56.54426574707031 77.02981567382812 56.54498672485352 77.02950286865234 56.54553985595703 C 77.02742004394531 56.54920959472656 77.02533721923828 56.55287170410156 77.02325439453125 56.55653381347656 C 77.02294158935547 56.55709075927734 77.02263641357422 56.55761337280273 77.02232360839844 56.55817031860352 C 77.02121734619141 56.56011581420898 77.02011108398438 56.56205749511719 77.01900482177734 56.56400299072266 C 77.01760864257812 56.56645202636719 77.01627349853516 56.56879425048828 77.01488494873047 56.57123565673828 C 77.01432037353516 56.57221984863281 77.01375579833984 56.57321166992188 77.01319122314453 56.57419586181641 C 77.00135040283203 56.59496307373047 76.98947143554688 56.61569976806641 76.9775390625 56.63642120361328 C 76.9775390625 56.63642120361328 76.9775390625 56.63642120361328 76.9775390625 56.63642120361328 C 76.9775390625 56.63642120361328 76.97679901123047 56.63770294189453 76.97542572021484 56.64009857177734 L 76.97541046142578 56.64012145996094 C 76.97471618652344 56.64131546020508 76.97386932373047 56.64279174804688 76.97287750244141 56.64451599121094 L 76.97285461425781 56.64455032348633 C 76.97190856933594 56.64619827270508 76.9708251953125 56.64807510375977 76.96961975097656 56.65016937255859 L 76.96891784667969 56.65139770507812 C 76.96875762939453 56.65167999267578 76.96859741210938 56.65195465087891 76.96842956542969 56.65223693847656 L 76.96841430664062 56.65227127075195 C 76.96809387207031 56.65282440185547 76.96776580810547 56.65339660644531 76.96743011474609 56.65397644042969 L 76.96721649169922 56.65435028076172 C 76.96713256835938 56.65450286865234 76.96704864501953 56.65464782714844 76.96695709228516 56.65480041503906 L 76.96672058105469 56.65520477294922 C 76.96663665771484 56.65535736083984 76.96654510498047 56.65552139282227 76.96645355224609 56.65567779541016 L 76.96611022949219 56.65627288818359 C 76.96603393554688 56.65641021728516 76.96595764160156 56.65653610229492 76.96588134765625 56.65667724609375 L 76.96558380126953 56.65718078613281 C 76.96549987792969 56.65732574462891 76.96542358398438 56.65746688842773 76.96533966064453 56.65761566162109 L 76.96484375 56.65847015380859 C 76.96484375 56.65847396850586 76.96484375 56.65847396850586 76.96483612060547 56.65847778320312 L 76.96432495117188 56.65936279296875 C 76.96428680419922 56.65943908691406 76.96424865722656 56.65951156616211 76.96420288085938 56.65958786010742 L 76.78854370117188 56.9647102355957 L 75.92189025878906 56.46579742431641 L 76.11088562011719 56.13751220703125 C 76.12992858886719 56.10443115234375 76.14884948730469 56.0713005065918 76.16767120361328 56.03810119628906 Z M 74.42514038085938 59.06574249267578 L 75.29179382324219 59.56465530395508 C 75.29179382324219 59.56465530395508 75.04232788085938 59.99798965454102 75.04232788085938 59.99798965454102 L 74.17568206787109 59.49906921386719 L 74.42514038085938 59.06574249267578 Z M 72.67892456054688 62.0990104675293 L 73.54557037353516 62.59793090820312 C 73.54557037353516 62.59793090820312 73.29611206054688 63.03125762939453 73.29611206054688 63.03125762939453 L 72.42947387695312 62.53234481811523 L 72.67892456054688 62.0990104675293 Z M 70.85371398925781 64.90865325927734 L 71.63876342773438 65.52809143066406 C 71.59693908691406 65.58108520507812 71.55484008789062 65.63383483886719 71.51243591308594 65.68635559082031 C 71.51203155517578 65.68685150146484 71.51158142089844 65.68740844726562 71.51118469238281 65.68790435791016 C 71.50862121582031 65.69107055664062 71.50606536865234 65.69423675537109 71.50350189208984 65.69740295410156 C 71.50270080566406 65.69839477539062 71.50193023681641 65.69934844970703 71.50112915039062 65.70034027099609 C 71.498779296875 65.7032470703125 71.49642944335938 65.70614624023438 71.49407958984375 65.70904541015625 C 71.49335479736328 65.70993804931641 71.49253082275391 65.71095275878906 71.49180603027344 65.71184539794922 C 71.48893737792969 65.71538543701172 71.48606872558594 65.71893310546875 71.48319244384766 65.72247314453125 C 71.48207092285156 65.72386169433594 71.48085784912109 65.72534942626953 71.479736328125 65.72673034667969 C 71.47796630859375 65.72890472412109 71.47621154785156 65.73106384277344 71.47444915771484 65.73323059082031 C 71.47299957275391 65.73501586914062 71.47158813476562 65.73674774169922 71.47013854980469 65.73853302001953 C 71.46867370605469 65.74033355712891 71.46721649169922 65.74211883544922 71.46575927734375 65.74391937255859 C 71.46414184570312 65.74589538574219 71.46261596679688 65.74777984619141 71.46099853515625 65.749755859375 C 71.45979309082031 65.75123596191406 71.45858764648438 65.75271606445312 71.45737457275391 65.75420379638672 C 71.45358276367188 65.75885009765625 71.44966888427734 65.76365661621094 71.44586944580078 65.76829528808594 C 71.44548034667969 65.76877593994141 71.44509124755859 65.76924896240234 71.4447021484375 65.76972961425781 C 71.44276428222656 65.77210235595703 71.44088745117188 65.77439117431641 71.43894958496094 65.77676391601562 C 71.43794250488281 65.77799224853516 71.43693542480469 65.77922058105469 71.43592834472656 65.78044891357422 C 71.43399047851562 65.78282165527344 71.43222045898438 65.78498077392578 71.43028259277344 65.78734588623047 C 71.42937469482422 65.78845977783203 71.42845916748047 65.78957366943359 71.42755126953125 65.79067993164062 C 71.42552947998047 65.79314422607422 71.42354583740234 65.79556274414062 71.42152404785156 65.79802703857422 C 71.42139434814453 65.79818725585938 71.4212646484375 65.79834747314453 71.42113494873047 65.79850769042969 C 71.41667938232422 65.80392456054688 71.41234588623047 65.8092041015625 71.40788269042969 65.81462097167969 C 71.40708923339844 65.81559753417969 71.40628051757812 65.81657409667969 71.40547180175781 65.81755065917969 C 71.40361022949219 65.81981658935547 71.40171051025391 65.82212066650391 71.39984893798828 65.82438659667969 C 71.39875030517578 65.82571411132812 71.39766693115234 65.82703399658203 71.39657592773438 65.82836151123047 C 71.39479064941406 65.83052062988281 71.39320373535156 65.83244323730469 71.39141845703125 65.83460998535156 C 71.38994598388672 65.83639526367188 71.38845062255859 65.83819580078125 71.38697814941406 65.83998870849609 C 71.38559722900391 65.84165954589844 71.38412475585938 65.84344482421875 71.38274383544922 65.84511566162109 C 71.37987518310547 65.84857940673828 71.37701416015625 65.85203552246094 71.37415313720703 65.85549926757812 C 71.37333679199219 65.85648345947266 71.37262725830078 65.85734558105469 71.37181091308594 65.85832977294922 C 71.36944580078125 65.86119079589844 71.36707305908203 65.86404418945312 71.36470031738281 65.86690521240234 C 71.36396789550781 65.86779022216797 71.36314392089844 65.86878204345703 71.36241149902344 65.86966705322266 C 71.35955810546875 65.87310791015625 71.35669708251953 65.87655639648438 71.35383605957031 65.87999725341797 C 71.353759765625 65.88009643554688 71.35363006591797 65.8802490234375 71.35354614257812 65.88034820556641 C 71.34359741210938 65.89232635498047 71.3336181640625 65.90430450439453 71.32363891601562 65.916259765625 L 70.55609130859375 65.2752685546875 C 70.65652465820312 65.15499877929688 70.75666046142578 65.03165435791016 70.85371398925781 64.90865325927734 Z M 68.56752777099609 67.28893280029297 L 69.21809387207031 68.04837799072266 C 69.21347808837891 68.05233001708984 69.2088623046875 68.05628204345703 69.20424652099609 68.06022644042969 C 69.20365905761719 68.06072998046875 69.20317077636719 68.06114196777344 69.20259094238281 68.0616455078125 C 69.20112609863281 68.06289672851562 69.19966888427734 68.06414031982422 69.19820404052734 68.06539154052734 C 69.19635772705078 68.06697082519531 69.19438934326172 68.06864929199219 69.19253540039062 68.07022857666016 C 69.19193267822266 68.07074737548828 69.19132995605469 68.07125854492188 69.19071960449219 68.07177734375 C 69.15974426269531 68.09821319580078 69.12874603271484 68.12447357177734 69.09757995605469 68.15069580078125 C 69.09757995605469 68.15069580078125 69.09757995605469 68.15069580078125 69.09757995605469 68.15069580078125 C 69.09757995605469 68.15069580078125 69.09657287597656 68.15155029296875 69.09468078613281 68.15314483642578 L 69.09461975097656 68.15319061279297 C 69.09275054931641 68.15476226806641 69.09004211425781 68.15704345703125 69.08660125732422 68.15994262695312 L 69.08545684814453 68.16090393066406 C 69.08537292480469 68.16097259521484 69.08528137207031 68.16104888916016 69.08519744873047 68.16112518310547 L 69.08480072021484 68.16145324707031 C 69.08464813232422 68.16158294677734 69.08448791503906 68.16171264648438 69.08433532714844 68.16184997558594 L 69.08413696289062 68.16201782226562 C 69.08401489257812 68.16211700439453 69.08388519287109 68.16222381591797 69.08376312255859 68.16233062744141 L 69.08331298828125 68.16271209716797 C 69.08289337158203 68.16305541992188 69.08246612548828 68.16342163085938 69.08203125 68.16378784179688 L 69.08193969726562 68.16386413574219 C 69.08175659179688 68.16401672363281 69.08155822753906 68.1641845703125 69.08136749267578 68.16434478759766 L 69.07987213134766 68.16560363769531 C 69.07952880859375 68.16588592529297 69.07918548583984 68.16618347167969 69.07883453369141 68.16647338867188 L 69.07868957519531 68.16660308837891 C 69.0784912109375 68.16676330566406 69.07830047607422 68.16693115234375 69.07810211181641 68.16709136962891 L 69.07762145996094 68.16749572753906 C 69.07756042480469 68.16754913330078 69.07749176025391 68.1676025390625 69.07743072509766 68.16765594482422 L 69.07672119140625 68.16825103759766 C 69.07660675048828 68.16835021972656 69.07649993896484 68.16844177246094 69.07638549804688 68.16853332519531 L 68.83596801757812 68.370849609375 L 68.19209289550781 67.60572052001953 L 68.45370483398438 67.38556671142578 C 68.49179077148438 67.35352325439453 68.52973937988281 67.32129669189453 68.56752777099609 67.28893280029297 Z M 65.89670562744141 69.537353515625 L 66.54058074951172 70.30247497558594 C 66.54058074951172 70.30247497558594 66.28852844238281 70.51458740234375 66.193603515625 70.59446716308594 L 66.19285583496094 70.59510040283203 C 66.19124603271484 70.59645080566406 66.18968963623047 70.59776306152344 66.18817901611328 70.59903717041016 L 66.18790435791016 70.59927368164062 C 66.18675231933594 70.60023498535156 66.18562316894531 70.60118865966797 66.18453216552734 70.60211181640625 L 66.18026733398438 70.60569763183594 C 66.18024444580078 70.605712890625 66.18021392822266 70.60573577880859 66.18019104003906 70.60575866699219 L 66.15801239013672 70.62442016601562 L 65.51413726806641 69.85929107666016 L 65.89670562744141 69.537353515625 Z M 63.21875 71.79092407226562 L 63.86262512207031 72.55604553222656 C 63.86262512207031 72.55604553222656 63.48005676269531 72.87799072265625 63.48005676269531 72.87799072265625 L 62.836181640625 72.11285400390625 L 63.21875 71.79092407226562 Z M 60.54344940185547 73.80903625488281 L 61.06999206542969 74.6591796875 C 60.98422241210938 74.71229553222656 60.89830017089844 74.76451873779297 60.81166076660156 74.81619262695312 C 60.81158828735352 74.81623077392578 60.81151580810547 74.81627655029297 60.81144714355469 74.81631469726562 C 60.80804443359375 74.81834411621094 60.80488204956055 74.82022857666016 60.80147552490234 74.82225799560547 C 60.80096054077148 74.82256317138672 60.80045700073242 74.82286071777344 60.79994201660156 74.82317352294922 C 60.79730606079102 74.82473754882812 60.79470062255859 74.82628631591797 60.79206466674805 74.82785797119141 C 60.79129791259766 74.82831573486328 60.79052734375 74.82877349853516 60.78975677490234 74.82923126220703 C 60.7871208190918 74.83079528808594 60.78436279296875 74.83243560791016 60.7817268371582 74.83399963378906 C 60.78034210205078 74.83482360839844 60.77896499633789 74.83563995361328 60.77758407592773 74.83645629882812 C 60.77593231201172 74.83744049072266 60.77432250976562 74.83839416503906 60.77267456054688 74.83937072753906 C 60.77018737792969 74.84084320068359 60.7677001953125 74.84232330322266 60.76521301269531 74.84379577636719 C 60.76399993896484 74.84450531005859 60.76288986206055 74.84516906738281 60.76168060302734 74.84588623046875 C 60.75983428955078 74.84697723388672 60.75798797607422 74.84806823730469 60.75614166259766 74.84915924072266 C 60.75548553466797 74.84954833984375 60.75485992431641 74.84992218017578 60.75419616699219 74.85031127929688 C 60.75057983398438 74.85244750976562 60.74697113037109 74.85458374023438 60.74335098266602 74.85671997070312 C 60.74291229248047 74.85697937011719 60.74229049682617 74.85734558105469 60.74185180664062 74.85760498046875 C 60.73544311523438 74.86138916015625 60.72904205322266 74.86515808105469 60.72263336181641 74.86893463134766 C 60.72230529785156 74.86912536621094 60.72206878662109 74.8692626953125 60.72173690795898 74.86946105957031 C 60.70447540283203 74.87961578369141 60.68720245361328 74.88974761962891 60.66990661621094 74.89984893798828 C 60.66891098022461 74.90042877197266 60.66791534423828 74.90100860595703 60.66692352294922 74.90158843994141 C 60.66517639160156 74.90261077880859 60.66342163085938 74.90363311767578 60.66167449951172 74.90465545654297 C 60.65935516357422 74.906005859375 60.65682983398438 74.90747833251953 60.65451049804688 74.90882873535156 C 60.65315246582031 74.90962219238281 60.65177154541016 74.91042327880859 60.65040588378906 74.91121673583984 C 60.64830780029297 74.91244506835938 60.64614486694336 74.91370391845703 60.64404678344727 74.91492462158203 C 60.6432991027832 74.91535949707031 60.64255523681641 74.91578674316406 60.64180755615234 74.91622161865234 C 60.64169692993164 74.91629028320312 60.64142608642578 74.91644287109375 60.64131546020508 74.91651153564453 L 60.13858032226562 74.05206298828125 C 60.27402496337891 73.97329711914062 60.41023635864258 73.89153289794922 60.54344940185547 73.80903625488281 Z M 57.58221435546875 75.26625823974609 L 57.9345703125 76.20212554931641 C 57.91040802001953 76.21121978759766 57.88623046875 76.22026824951172 57.86202239990234 76.22926330566406 C 57.86106109619141 76.22962188720703 57.86013412475586 76.22996520996094 57.85916900634766 76.23032379150391 C 57.85711669921875 76.23108673095703 57.85506439208984 76.23184204101562 57.85301208496094 76.23260498046875 C 57.85096740722656 76.23336791992188 57.848876953125 76.23413848876953 57.84683227539062 76.23490142822266 C 57.84563064575195 76.23534393310547 57.84443664550781 76.23578643798828 57.84323501586914 76.23622894287109 C 57.84034729003906 76.2373046875 57.8375244140625 76.23834228515625 57.83463287353516 76.23941040039062 C 57.83399200439453 76.23965454101562 57.83335113525391 76.23989105224609 57.83271026611328 76.24012756347656 C 57.82933807373047 76.24137115478516 57.82568359375 76.24272155761719 57.82231140136719 76.24396514892578 C 57.82217407226562 76.2440185546875 57.82202911376953 76.24407196044922 57.82189178466797 76.24411773681641 C 57.80263137817383 76.25122833251953 57.78352737426758 76.25823974609375 57.76423645019531 76.26527404785156 C 57.76423645019531 76.26527404785156 57.76423645019531 76.26527404785156 57.76423645019531 76.26527404785156 C 57.76423645019531 76.26527404785156 57.46519470214844 76.37443542480469 57.46519470214844 76.37443542480469 L 57.12229156494141 75.43506622314453 L 57.42134857177734 75.32589721679688 C 57.47508239746094 75.30628967285156 57.52870178222656 75.28640747070312 57.58221435546875 75.26625823974609 Z M 54.30416870117188 76.4637451171875 L 54.64707183837891 77.40311431884766 C 54.64707183837891 77.40311431884766 54.55080413818359 77.43825531005859 54.44544219970703 77.47671508789062 L 54.44469451904297 77.47698974609375 C 54.44381713867188 77.47731018066406 54.44292068481445 77.47763061523438 54.44203948974609 77.47795867919922 L 54.1773796081543 77.57456207275391 L 53.83449554443359 76.63518524169922 L 54.30416870117188 76.4637451171875 Z M 51.016357421875 77.66386413574219 L 51.35926055908203 78.60324096679688 L 50.88957214355469 78.77468872070312 L 50.54668426513672 77.83531188964844 L 51.016357421875 77.66386413574219 Z M 47.81166076660156 78.64385223388672 L 48.0152702331543 79.62290954589844 C 48.00610733032227 79.62481689453125 47.9969367980957 79.62671661376953 47.98777389526367 79.62860870361328 C 47.98564147949219 79.62905120849609 47.98334884643555 79.6295166015625 47.98122024536133 79.62995910644531 C 47.98016357421875 79.63018035888672 47.9791259765625 79.63039398193359 47.97806930541992 79.63060760498047 C 47.97455978393555 79.63133239746094 47.97098541259766 79.63206481933594 47.96747589111328 79.63278198242188 C 47.96711730957031 79.63285827636719 47.96677017211914 79.63292694091797 47.96641159057617 79.63300323486328 C 47.81943130493164 79.66314697265625 47.67206954956055 79.69145202636719 47.52439117431641 79.71790313720703 L 47.34804916381836 78.73358154296875 C 47.50228118896484 78.70594787597656 47.65826034545898 78.67576599121094 47.81166076660156 78.64385223388672 Z M 44.53046035766602 78.99903106689453 L 44.54105758666992 79.99897766113281 C 44.54028701782227 79.99898529052734 44.5396614074707 79.99899291992188 44.53889083862305 79.99900054931641 C 44.53680419921875 79.9990234375 44.53471755981445 79.99904632568359 44.53263092041016 79.99906158447266 C 44.52993392944336 79.99909210205078 44.52717590332031 79.99912261962891 44.52447891235352 79.9991455078125 C 44.52362823486328 79.99915313720703 44.52276611328125 79.99916076660156 44.52191543579102 79.99916839599609 C 44.47721862792969 79.99959564208984 44.43224716186523 79.99985504150391 44.38753509521484 79.99994659423828 C 44.38745880126953 79.99995422363281 44.38738632202148 79.99995422363281 44.38730621337891 79.99995422363281 C 44.38370895385742 79.99996185302734 44.37997055053711 79.99996185302734 44.37637329101562 79.99996948242188 C 44.37586212158203 79.99996948242188 44.37535858154297 79.99996948242188 44.37484741210938 79.99996948242188 C 44.37150955200195 79.99997711181641 44.3682861328125 79.99997711181641 44.36494827270508 79.99998474121094 C 44.3641357421875 79.99998474121094 44.36332321166992 79.99998474121094 44.36251449584961 79.99998474121094 C 44.35840225219727 79.99998474121094 44.35445022583008 79.99999237060547 44.35033798217773 79.99999237060547 C 44.35033798217773 79.99999237060547 44.35033798217773 79.99999237060547 44.35033798217773 79.99999237060547 C 44.35023880004883 79.99999237060547 44.04106903076172 79.99999237060547 44.04106903076172 79.99999237060547 L 44.04106903076172 78.99999237060547 L 44.35033798217773 78.99999237060547 C 44.41039276123047 78.99999237060547 44.47043609619141 78.99966430664062 44.53046035766602 78.99903106689453 Z M 40.54106903076172 78.99999237060547 L 41.04106903076172 78.99999237060547 L 41.04106903076172 79.99999237060547 C 41.04106903076172 79.99999237060547 40.54106903076172 79.99999237060547 40.54106903076172 79.99999237060547 L 40.54106903076172 78.99999237060547 Z M 37.04106903076172 78.99999237060547 L 37.54106903076172 78.99999237060547 L 37.54106903076172 79.99999237060547 C 37.54106903076172 79.99999237060547 37.04106903076172 79.99999237060547 37.04106903076172 79.99999237060547 L 37.04106903076172 78.99999237060547 Z M 33.72832489013672 78.74708557128906 C 33.88268280029297 78.77400970458984 34.03954696655273 78.79914093017578 34.1945915222168 78.82176971435547 L 34.0501708984375 79.81128692626953 C 34.01786804199219 79.80657196044922 33.98538970947266 79.80174255371094 33.9531135559082 79.79685211181641 C 33.95269012451172 79.79678344726562 33.95228576660156 79.79672241210938 33.95186233520508 79.79666137695312 C 33.94806289672852 79.79608154296875 33.94453811645508 79.79554748535156 33.94074249267578 79.79496765136719 C 33.9401969909668 79.79489135742188 33.93967056274414 79.79480743408203 33.93912887573242 79.79472351074219 C 33.93596649169922 79.79424285888672 33.93284606933594 79.79376983642578 33.92968368530273 79.79328155517578 C 33.92890930175781 79.79316711425781 33.92813110351562 79.79304504394531 33.9273567199707 79.79293060302734 C 33.92406463623047 79.79242706298828 33.92079544067383 79.79192352294922 33.91750717163086 79.79141998291016 C 33.91617965698242 79.79121398925781 33.91485977172852 79.79100799560547 33.91353225708008 79.79080963134766 C 33.91138076782227 79.79047393798828 33.90933609008789 79.7901611328125 33.90718460083008 79.78983306884766 C 33.90481185913086 79.78946685791016 33.90244293212891 79.78910064697266 33.90007019042969 79.78873443603516 C 33.89817047119141 79.78843688964844 33.89626312255859 79.78814697265625 33.89436721801758 79.78784942626953 C 33.89255905151367 79.78756713867188 33.89072418212891 79.78728485107422 33.888916015625 79.78700256347656 C 33.88727188110352 79.78675079345703 33.8858642578125 79.78652954101562 33.88422012329102 79.78627777099609 C 33.88112258911133 79.78578948974609 33.87801742553711 79.78530883789062 33.87491989135742 79.78482818603516 C 33.8736572265625 79.78462982177734 33.87234115600586 79.784423828125 33.87107467651367 79.78422546386719 C 33.86903381347656 79.78390502929688 33.86699676513672 79.78358459472656 33.86495590209961 79.78327178955078 C 33.86419677734375 79.78314971923828 33.8633918762207 79.78302001953125 33.86263275146484 79.78290557861328 C 33.858642578125 79.78227996826172 33.85466384887695 79.78165435791016 33.85067749023438 79.78102874755859 C 33.84979248046875 79.7808837890625 33.84879302978516 79.78073120117188 33.84790802001953 79.78059387207031 C 33.84356689453125 79.7799072265625 33.8392333984375 79.77922058105469 33.83489227294922 79.77853393554688 C 33.83451461791992 79.77847290039062 33.83415985107422 79.77841949462891 33.83377838134766 79.77835845947266 C 33.83152008056641 79.77799987792969 33.82924652099609 79.77764129638672 33.82698822021484 79.77728271484375 C 33.82610321044922 79.77713775634766 33.82548522949219 79.77703857421875 33.82460021972656 79.77690124511719 C 33.82035064697266 79.77622985839844 33.81610107421875 79.77555084228516 33.81185531616211 79.77487182617188 C 33.81134796142578 79.77478790283203 33.81094741821289 79.77472686767578 33.81044006347656 79.77464294433594 C 33.80801773071289 79.77426147460938 33.80559158325195 79.77387237548828 33.80317306518555 79.77348327636719 C 33.80291748046875 79.77344512939453 33.8027458190918 79.77341461181641 33.80249404907227 79.77337646484375 C 33.79780197143555 79.77262115478516 33.79310989379883 79.77186584472656 33.78842163085938 79.77111053466797 C 33.78791427612305 79.77103424072266 33.78763580322266 79.77098846435547 33.78712844848633 79.77090454101562 C 33.77962875366211 79.76969909667969 33.77214431762695 79.76848602294922 33.76464462280273 79.76727294921875 C 33.76451873779297 79.76725006103516 33.76443099975586 79.76723480224609 33.76430511474609 79.7672119140625 C 33.69496536254883 79.75595092773438 33.62568283081055 79.74428558349609 33.55648040771484 79.73220825195312 L 33.72832489013672 78.74708557128906 Z M 30.53047180175781 77.86346435546875 L 30.82058334350586 77.96935272216797 C 30.87712478637695 77.98999786376953 30.93378067016602 78.01034545898438 30.99052429199219 78.03038024902344 L 30.65762710571289 78.97333526611328 C 30.59753799438477 78.95212554931641 30.53755950927734 78.93058776855469 30.47768020629883 78.90873718261719 C 30.47768020629883 78.90873718261719 30.47656631469727 78.9083251953125 30.47447204589844 78.90756225585938 L 30.47435760498047 78.90751647949219 C 30.47333526611328 78.90715026855469 30.47209167480469 78.90669250488281 30.47063064575195 78.90615844726562 L 30.47038650512695 78.90606689453125 C 30.46968078613281 78.90581512451172 30.46892547607422 78.90554046630859 30.4681282043457 78.90524291992188 L 30.46785736083984 78.90514373779297 C 30.46753311157227 78.905029296875 30.46719741821289 78.9049072265625 30.46686172485352 78.90478515625 L 30.18758392333984 78.80284118652344 L 30.53047180175781 77.86346435546875 Z M 27.24266052246094 76.66334533691406 L 27.71234893798828 76.83478546142578 L 27.36944961547852 77.774169921875 L 26.89977264404297 77.60272216796875 L 27.24266052246094 76.66334533691406 Z M 23.95484924316406 75.46321868896484 L 24.42453765869141 75.63466644287109 L 24.08163833618164 76.57404327392578 L 23.6119499206543 76.40259552001953 L 23.95484924316406 75.46321868896484 Z M 20.92854690551758 74.09091186523438 C 21.06435775756836 74.16905212402344 21.2031364440918 74.24637603759766 21.34106063842773 74.32073211669922 L 20.86654663085938 75.20098114013672 C 20.86114501953125 75.19806671142578 20.85569000244141 75.19512176513672 20.85029220581055 75.19219970703125 C 20.85011291503906 75.19210815429688 20.84994506835938 75.1920166015625 20.84976577758789 75.19191741943359 C 20.84650421142578 75.19015502929688 20.84316635131836 75.18834686279297 20.83990478515625 75.18658447265625 C 20.83963775634766 75.18643951416016 20.8393669128418 75.18629455566406 20.83909606933594 75.18614959716797 C 20.83628463745117 75.18462371826172 20.83344268798828 75.18308258056641 20.83063507080078 75.18156433105469 C 20.82915878295898 75.18076324462891 20.82767868041992 75.17996215820312 20.82620239257812 75.17916107177734 C 20.82508087158203 75.17855072021484 20.82391357421875 75.17791748046875 20.82278823852539 75.17730712890625 C 20.81926727294922 75.17539978027344 20.81574249267578 75.17348480224609 20.81222152709961 75.17156982421875 C 20.81188583374023 75.17138671875 20.81156158447266 75.17121124267578 20.81122589111328 75.17102813720703 C 20.69255447387695 75.10651397705078 20.57464218139648 75.04068756103516 20.45746231079102 74.97353363037109 C 20.45724105834961 74.97340393066406 20.45679473876953 74.97315216064453 20.45657348632812 74.9730224609375 C 20.45463943481445 74.97191619873047 20.45271301269531 74.97080993652344 20.45078277587891 74.96970367431641 C 20.44834136962891 74.96830749511719 20.44564437866211 74.96675872802734 20.44320678710938 74.96535491943359 C 20.44260406494141 74.96501159667969 20.44202423095703 74.96467590332031 20.44142532348633 74.96433258056641 C 20.43832015991211 74.96254730224609 20.43527603149414 74.96080017089844 20.43217468261719 74.95901489257812 C 20.43210220336914 74.95897674560547 20.43203735351562 74.95893859863281 20.43196868896484 74.95889282226562 C 20.43119049072266 74.95845031738281 20.43054580688477 74.95807647705078 20.42977142333984 74.95763397216797 L 20.92854690551758 74.09091186523438 Z M 18.22664642333984 72.16573333740234 L 18.4619255065918 72.36372375488281 C 18.50830459594727 72.40275573730469 18.55488204956055 72.44153594970703 18.60165786743164 72.48004150390625 L 17.96600341796875 73.25202178955078 C 17.95828247070312 73.24565887451172 17.95057678222656 73.23930358886719 17.94286346435547 73.23293304443359 C 17.94183349609375 73.23207855224609 17.94080352783203 73.23122406005859 17.93977355957031 73.23037719726562 C 17.93828964233398 73.22914886474609 17.93685913085938 73.22796630859375 17.93537521362305 73.22673797607422 C 17.93345260620117 73.22515106201172 17.93152618408203 73.22355651855469 17.92960739135742 73.22196960449219 C 17.92891311645508 73.22139739990234 17.92795944213867 73.22060394287109 17.92726898193359 73.22003173828125 C 17.9248161315918 73.21800231933594 17.92237091064453 73.21597290039062 17.919921875 73.21394348144531 C 17.91952514648438 73.21361541748047 17.91917037963867 73.21331787109375 17.91877365112305 73.21298980712891 C 17.91606903076172 73.21074676513672 17.91336441040039 73.20850372314453 17.9106559753418 73.20626068115234 C 17.91016387939453 73.20584869384766 17.90981292724609 73.20555877685547 17.90931701660156 73.20514678955078 C 17.90671539306641 73.20298767089844 17.90410995483398 73.20082092285156 17.90150833129883 73.19865417480469 C 17.90071868896484 73.197998046875 17.90011596679688 73.19750213623047 17.89932632446289 73.19684600830078 C 17.89704513549805 73.1949462890625 17.89476776123047 73.19305419921875 17.89249038696289 73.19115447998047 C 17.89091110229492 73.18984222412109 17.88943481445312 73.18861389160156 17.88785934448242 73.18730163574219 C 17.88644027709961 73.18611907958984 17.8850212097168 73.1849365234375 17.88360595703125 73.18375396728516 C 17.88084411621094 73.18145751953125 17.87790679931641 73.17900848388672 17.87514877319336 73.17670440673828 C 17.87498474121094 73.17656707763672 17.87481307983398 73.17642211914062 17.8746452331543 73.17628479003906 C 17.85573196411133 73.16049957275391 17.8369026184082 73.14472198486328 17.81804656982422 73.12885284423828 C 17.81804656982422 73.12885284423828 17.81804656982422 73.12885284423828 17.81804656982422 73.12885284423828 C 17.81804656982422 73.12885284423828 17.81713485717773 73.12808990478516 17.81542587280273 73.12664794921875 L 17.81539535522461 73.12662506103516 C 17.81371307373047 73.12520599365234 17.81126403808594 73.12314605712891 17.80816268920898 73.12053680419922 L 17.80702590942383 73.11957550048828 C 17.8070182800293 73.11957550048828 17.80701446533203 73.11956787109375 17.8070068359375 73.11956787109375 L 17.8063850402832 73.11904144287109 C 17.80633163452148 73.11899566650391 17.80627822875977 73.11894989013672 17.80622482299805 73.11890411376953 L 17.80605316162109 73.11875915527344 C 17.80588531494141 73.11862182617188 17.80571746826172 73.11847686767578 17.80554962158203 73.11833953857422 L 17.80526351928711 73.11809539794922 C 17.80450057983398 73.11745452880859 17.8036994934082 73.11678314208984 17.80287551879883 73.1160888671875 L 17.80179595947266 73.11518096923828 C 17.80166625976562 73.11506652832031 17.80152893066406 73.11495208740234 17.80139541625977 73.11484527587891 L 17.80087280273438 73.11440277099609 C 17.8007698059082 73.11431884765625 17.8006706237793 73.11423492431641 17.80056762695312 73.11414337158203 L 17.58277130126953 72.93086242675781 L 18.22664642333984 72.16573333740234 Z M 15.54869079589844 69.91217041015625 L 15.93125915527344 70.23410797119141 L 15.28738403320312 70.99923706054688 C 15.28738403320312 70.99923706054688 15.015380859375 70.77034759521484 14.93008422851562 70.69856262207031 L 14.92959594726562 70.69815063476562 C 14.92891693115234 70.69758605957031 14.92826080322266 70.69702911376953 14.9276123046875 70.69647979736328 L 14.92759704589844 70.69647216796875 C 14.92697143554688 70.69594573974609 14.92636871337891 70.6954345703125 14.92577362060547 70.69493865966797 L 14.92487335205078 70.69418334960938 C 14.92485046386719 70.69416046142578 14.92482757568359 70.69414520263672 14.9248046875 70.69412231445312 L 14.90481567382812 70.67729949951172 L 15.54869079589844 69.91217041015625 Z M 12.87073516845703 67.65861511230469 L 13.25330352783203 67.98054504394531 L 12.60942840576172 68.74568176269531 L 12.38606262207031 68.55770874023438 C 12.38581848144531 68.55750274658203 12.38555908203125 68.55728149414062 12.38531494140625 68.55707550048828 L 12.38419342041016 68.55613708496094 C 12.38388061523438 68.55587005615234 12.38356781005859 68.55561065673828 12.38325500488281 68.55534362792969 L 12.38201141357422 68.55429840087891 C 12.29981994628906 68.48513031005859 12.22686004638672 68.42373657226562 12.22686004638672 68.42373657226562 L 12.87073516845703 67.65861511230469 Z M 10.49375915527344 65.33468627929688 C 10.59473419189453 65.45449066162109 10.69880676269531 65.57453155517578 10.80307006835938 65.69147491455078 L 10.05665588378906 66.35695648193359 C 10.01535797119141 66.31063079833984 9.974281311035156 66.26408386230469 9.933464050292969 66.21733093261719 C 9.932456970214844 66.21617889404297 9.931411743164062 66.21498107910156 9.930404663085938 66.21382904052734 C 9.928451538085938 66.21159362792969 9.926490783691406 66.20934295654297 9.924537658691406 66.20709991455078 C 9.923027038574219 66.20536804199219 9.921577453613281 66.20370483398438 9.920066833496094 66.20197296142578 C 9.918739318847656 66.20044708251953 9.917411804199219 66.19892883300781 9.916084289550781 66.19740295410156 C 9.853157043457031 66.12511444091797 9.790901184082031 66.05245208740234 9.729141235351562 65.97917175292969 L 10.49375915527344 65.33468627929688 Z M 8.611503601074219 62.60351181030273 L 8.759140014648438 62.85996627807617 C 8.791191101074219 62.91566467285156 8.823570251464844 62.97116851806641 8.856246948242188 63.02646636962891 L 7.995315551757812 63.53517913818359 C 7.960716247558594 63.47662353515625 7.926437377929688 63.41785430908203 7.892478942871094 63.35887908935547 C 7.892478942871094 63.35887908935547 7.89190673828125 63.35788345336914 7.890838623046875 63.35601806640625 L 7.890792846679688 63.3559455871582 C 7.889739990234375 63.35411071777344 7.888214111328125 63.35146331787109 7.886283874511719 63.34810638427734 L 7.886016845703125 63.34764099121094 C 7.885818481445312 63.34731292724609 7.885627746582031 63.34697341918945 7.885429382324219 63.34662628173828 L 7.885322570800781 63.3464469909668 C 7.884574890136719 63.34513854980469 7.883766174316406 63.34373474121094 7.882911682128906 63.34224700927734 L 7.882713317871094 63.34191131591797 C 7.882453918457031 63.34145355224609 7.882194519042969 63.34100341796875 7.881919860839844 63.34053039550781 L 7.881828308105469 63.34037399291992 C 7.881546020507812 63.33988952636719 7.881263732910156 63.33938598632812 7.880973815917969 63.33888626098633 L 7.880805969238281 63.33860015869141 C 7.880607604980469 63.33824920654297 7.880401611328125 63.337890625 7.880195617675781 63.33753204345703 L 7.878166198730469 63.33400726318359 C 7.878105163574219 63.33390426635742 7.8780517578125 63.33380889892578 7.87799072265625 63.33370590209961 L 7.877555847167969 63.33295440673828 C 7.877494812011719 63.33284759521484 7.877433776855469 63.33273315429688 7.877365112304688 63.33262252807617 L 7.877189636230469 63.33232116699219 C 7.8770751953125 63.33211135864258 7.876953125 63.33190155029297 7.8768310546875 63.33168792724609 L 7.876457214355469 63.3310432434082 C 7.876411437988281 63.33096313476562 7.876358032226562 63.33087158203125 7.876312255859375 63.33078765869141 L 7.875953674316406 63.33016967773438 C 7.875885009765625 63.33003997802734 7.875808715820312 63.32991790771484 7.875732421875 63.32978820800781 L 7.875267028808594 63.32897186279297 C 7.875259399414062 63.32896423339844 7.875251770019531 63.32894897460938 7.875244140625 63.32894134521484 L 7.744850158691406 63.10243225097656 L 8.611503601074219 62.60351181030273 Z M 6.865280151367188 59.57024383544922 L 7.11474609375 60.00356674194336 L 6.248092651367188 60.50248718261719 L 5.998641967773438 60.06916809082031 L 6.865280151367188 59.57024383544922 Z M 5.119071960449219 56.53696441650391 L 5.368522644042969 56.97029876708984 L 4.501884460449219 57.46921157836914 C 4.501884460449219 57.46921157836914 4.252426147460938 57.035888671875 4.252426147460938 57.035888671875 L 5.119071960449219 56.53696441650391 Z M 3.673370361328125 53.54119873046875 C 3.727615356445312 53.68820190429688 3.784683227539062 53.83646392822266 3.842979431152344 53.98189926147461 L 2.914802551269531 54.35401153564453 C 2.852783203125 54.19930267333984 2.792900085449219 54.04374694824219 2.735214233398438 53.88739013671875 L 3.673370361328125 53.54119873046875 Z M 2.832283020019531 50.33419799804688 L 2.878952026367188 50.59965515136719 C 2.891517639160156 50.67113494873047 2.904533386230469 50.74251174926758 2.918014526367188 50.81378936767578 L 1.9354248046875 50.99955749511719 C 1.922317504882812 50.93019866943359 1.90960693359375 50.86074829101562 1.897300720214844 50.79120254516602 C 1.89703369140625 50.78969192504883 1.89678955078125 50.78829193115234 1.896522521972656 50.78678131103516 C 1.896263122558594 50.78532409667969 1.896003723144531 50.78385543823242 1.895744323730469 50.78239440917969 C 1.895187377929688 50.77924728393555 1.894615173339844 50.77597045898438 1.894058227539062 50.77281951904297 C 1.894058227539062 50.77281951904297 1.894058227539062 50.77281951904297 1.894058227539062 50.77281951904297 C 1.894058227539062 50.77281951904297 1.893875122070312 50.77178955078125 1.893539428710938 50.76984405517578 L 1.893531799316406 50.76983642578125 C 1.89337158203125 50.76889038085938 1.893165588378906 50.76773071289062 1.892921447753906 50.76637268066406 L 1.89288330078125 50.76615142822266 C 1.892791748046875 50.76562881469727 1.8927001953125 50.76507568359375 1.892593383789062 50.76449584960938 L 1.847381591796875 50.50735473632812 L 2.832283020019531 50.33419799804688 Z M 2.226211547851562 46.88706588745117 L 2.312789916992188 47.37952041625977 L 1.327903747558594 47.55267715454102 C 1.327903747558594 47.55267715454102 1.3038330078125 47.41579437255859 1.281074523925781 47.2863655090332 L 1.281028747558594 47.28610992431641 C 1.280914306640625 47.28543472290039 1.280792236328125 47.28474807739258 1.280670166015625 47.28407287597656 L 1.280181884765625 47.28126525878906 C 1.280181884765625 47.28126525878906 1.280174255371094 47.2812385559082 1.280174255371094 47.2812385559082 L 1.241317749023438 47.06023406982422 L 2.226211547851562 46.88706588745117 Z M 1.620147705078125 43.43994522094727 L 1.70672607421875 43.93238830566406 L 0.7218399047851562 44.10555648803711 C 0.7218399047851562 44.10555648803711 0.6974105834960938 43.96662139892578 0.67449951171875 43.83634185791016 L 0.6744766235351562 43.83619689941406 C 0.67431640625 43.83528137207031 0.6741561889648438 43.83436584472656 0.6739959716796875 43.83345413208008 L 0.6739730834960938 43.83333206176758 C 0.673828125 43.83252334594727 0.6736831665039062 43.83171081542969 0.6735458374023438 43.83090591430664 L 0.6734085083007812 43.83011627197266 C 0.6733551025390625 43.8298454284668 0.673309326171875 43.82957458496094 0.6732635498046875 43.82930755615234 L 0.673187255859375 43.82886505126953 C 0.6731414794921875 43.8286247253418 0.6731033325195312 43.82839584350586 0.6730575561523438 43.82815551757812 L 0.63525390625 43.61310958862305 L 1.620147705078125 43.43994522094727 Z M 1.276580810546875 40.12889862060547 C 1.27777099609375 40.28557968139648 1.281181335449219 40.44441223144531 1.286727905273438 40.60100173950195 L 0.2873458862304688 40.63634490966797 C 0.2867660522460938 40.61980056762695 0.2862014770507812 40.6031494140625 0.2856597900390625 40.58660507202148 C 0.2856597900390625 40.58657455444336 0.2856597900390625 40.5865478515625 0.2856597900390625 40.58651733398438 C 0.285400390625 40.57875442504883 0.28515625 40.57100296020508 0.284912109375 40.56324005126953 C 0.2848892211914062 40.56247711181641 0.2848663330078125 40.56171035766602 0.2848434448242188 40.56094741821289 C 0.28472900390625 40.5573844909668 0.2846221923828125 40.55392837524414 0.284515380859375 40.55036544799805 C 0.2844924926757812 40.54963302612305 0.2844696044921875 40.54890441894531 0.2844467163085938 40.54817199707031 C 0.28436279296875 40.54550170898438 0.2842788696289062 40.54271697998047 0.2842025756835938 40.54004669189453 C 0.2841567993164062 40.53866195678711 0.28411865234375 40.53729248046875 0.2840805053710938 40.53591156005859 C 0.2839889526367188 40.53298187255859 0.2838973999023438 40.52983093261719 0.2838134765625 40.52690505981445 C 0.2837677001953125 40.5252685546875 0.2837142944335938 40.52361297607422 0.2836685180664062 40.52197647094727 C 0.2836227416992188 40.52032089233398 0.2835693359375 40.51860809326172 0.2835235595703125 40.5169563293457 C 0.2833328247070312 40.51019287109375 0.28314208984375 40.50344085693359 0.2829513549804688 40.49667739868164 C 0.282928466796875 40.49591445922852 0.2829132080078125 40.49531173706055 0.28289794921875 40.49454879760742 C 0.2807693481445312 40.4171028137207 0.2791366577148438 40.33964538574219 0.2780075073242188 40.26218414306641 C 0.2780075073242188 40.26192855834961 0.2779998779296875 40.26131820678711 0.2779922485351562 40.26106262207031 C 0.27789306640625 40.25396347045898 0.2777938842773438 40.24686813354492 0.2776947021484375 40.23976516723633 C 0.277679443359375 40.23862075805664 0.2776641845703125 40.23751449584961 0.27764892578125 40.23637008666992 C 0.277618408203125 40.2341423034668 0.2775955200195312 40.23193740844727 0.2775650024414062 40.22970962524414 C 0.2775344848632812 40.22716522216797 0.277496337890625 40.22454071044922 0.2774658203125 40.22199249267578 C 0.2774505615234375 40.22030258178711 0.2774276733398438 40.21861267089844 0.27740478515625 40.21692657470703 C 0.2773818969726562 40.21488952636719 0.2773590087890625 40.21284866333008 0.2773361206054688 40.21081161499023 C 0.2773208618164062 40.20945739746094 0.2772979736328125 40.20811462402344 0.27728271484375 40.20676422119141 C 0.277252197265625 40.20370864868164 0.2772140502929688 40.20036315917969 0.2771835327148438 40.19730758666992 C 0.2771682739257812 40.19609832763672 0.2771530151367188 40.19486236572266 0.2771377563476562 40.19364929199219 C 0.2770614624023438 40.18639373779297 0.2769851684570312 40.17901611328125 0.27691650390625 40.17175674438477 C 0.27691650390625 40.17137145996094 0.2769088745117188 40.17098999023438 0.2769088745117188 40.17060470581055 C 0.2768020629882812 40.15914916992188 0.276702880859375 40.14793395996094 0.2766189575195312 40.13647842407227 L 1.276580810546875 40.12889862060547 Z M 0.587982177734375 36.65573501586914 L 1.572883605957031 36.82888793945312 L 1.532905578613281 37.05622100830078 C 1.518226623535156 37.13970947265625 1.504180908203125 37.22328948974609 1.490760803222656 37.30693435668945 L 0.5033950805664062 37.14852142333984 C 0.5067520141601562 37.12754821777344 0.5101547241210938 37.1065788269043 0.5135955810546875 37.08561325073242 C 0.514007568359375 37.08309173583984 0.5144271850585938 37.08055877685547 0.5148391723632812 37.07804107666016 C 0.5149612426757812 37.07729339599609 0.5150833129882812 37.07655334472656 0.5152053833007812 37.0758056640625 C 0.5251083374023438 37.01568603515625 0.5352859497070312 36.95571899414062 0.5457992553710938 36.89567565917969 C 0.545867919921875 36.89531707763672 0.545928955078125 36.89496231079102 0.545989990234375 36.89459991455078 C 0.5466766357421875 36.89069747924805 0.5473251342773438 36.88696670532227 0.5480117797851562 36.8830680847168 L 0.5480117797851562 36.8830680847168 C 0.5480117797851562 36.8830680847168 0.5483627319335938 36.88110733032227 0.548980712890625 36.87755584716797 L 0.5490188598632812 36.87736129760742 C 0.5490646362304688 36.87708282470703 0.5491180419921875 36.87680435180664 0.5491714477539062 36.87651062011719 L 0.5491714477539062 36.87650680541992 C 0.5492172241210938 36.87621688842773 0.5492706298828125 36.87591934204102 0.5493240356445312 36.87561416625977 L 0.54937744140625 36.87532043457031 C 0.5494232177734375 36.87504959106445 0.549468994140625 36.87477493286133 0.5495223999023438 36.87449264526367 L 0.549560546875 36.87428665161133 C 0.5495758056640625 36.87420272827148 0.549591064453125 36.87411880493164 0.5496063232421875 36.87403106689453 L 0.54998779296875 36.87186050415039 C 0.5499954223632812 36.87180709838867 0.5500030517578125 36.87176132202148 0.5500106811523438 36.87170791625977 L 0.5508193969726562 36.86710739135742 C 0.5508193969726562 36.86709594726562 0.5508270263671875 36.8670768737793 0.5508270263671875 36.86706161499023 L 0.587982177734375 36.65573501586914 Z M 1.194046020507812 33.20859909057617 L 2.178947448730469 33.38176727294922 L 2.092361450195312 33.87421035766602 L 1.107467651367188 33.70104598999023 L 1.194053649902344 33.20859909057617 Z M 1.800117492675781 29.76147842407227 L 2.785011291503906 29.93463516235352 L 2.698440551757812 30.42708969116211 L 1.713539123535156 30.25392150878906 L 1.800117492675781 29.76147842407227 Z M 2.642662048339844 26.36940002441406 L 3.585968017578125 26.70132064819336 C 3.533958435058594 26.84912109375 3.483306884765625 26.99971008300781 3.4354248046875 27.14889907836914 L 2.483268737792969 26.84328842163086 C 2.49041748046875 26.82102203369141 2.497611999511719 26.79875564575195 2.504844665527344 26.77651596069336 C 2.5048828125 26.77639389038086 2.504966735839844 26.77613067626953 2.5050048828125 26.7760124206543 C 2.50640869140625 26.77170562744141 2.507820129394531 26.76737976074219 2.509223937988281 26.76307678222656 C 2.50946044921875 26.76234817504883 2.509696960449219 26.76163101196289 2.509933471679688 26.76090240478516 C 2.510589599609375 26.75889205932617 2.511238098144531 26.75690078735352 2.511894226074219 26.75489044189453 C 2.512603759765625 26.75270843505859 2.513267517089844 26.75069427490234 2.51397705078125 26.74851608276367 C 2.514549255371094 26.74675369262695 2.515121459960938 26.74501419067383 2.515701293945312 26.74325561523438 C 2.516494750976562 26.7408332824707 2.517227172851562 26.73859405517578 2.518020629882812 26.73617172241211 C 2.518356323242188 26.73514556884766 2.518684387207031 26.73413467407227 2.519020080566406 26.73310852050781 C 2.520133972167969 26.72972106933594 2.521255493164062 26.7263069152832 2.522369384765625 26.72291946411133 C 2.522468566894531 26.72261047363281 2.522567749023438 26.72230529785156 2.522674560546875 26.72199630737305 C 2.559402465820312 26.61028289794922 2.597251892089844 26.49885940551758 2.636161804199219 26.38789367675781 C 2.636398315429688 26.38721466064453 2.636642456054688 26.38651657104492 2.636886596679688 26.38583374023438 C 2.637985229492188 26.38270950317383 2.639106750488281 26.3795051574707 2.640205383300781 26.37638092041016 C 2.640701293945312 26.37496948242188 2.641204833984375 26.37354278564453 2.641700744628906 26.37213134765625 C 2.641990661621094 26.37129211425781 2.642364501953125 26.37024307250977 2.642662048339844 26.36940002441406 Z M 4.116233825683594 23.20066833496094 L 4.982894897460938 23.69958877563477 L 4.889106750488281 23.86249923706055 C 4.840080261230469 23.94766616821289 4.791801452636719 24.03322219848633 4.744293212890625 24.11916732788086 L 3.869125366210938 23.63534545898438 C 3.877784729003906 23.61968994140625 3.886344909667969 23.60425567626953 3.895050048828125 23.588623046875 C 3.89532470703125 23.58813095092773 3.895591735839844 23.587646484375 3.895866394042969 23.58715438842773 C 3.897422790527344 23.5843620300293 3.899032592773438 23.58147430419922 3.900588989257812 23.57868194580078 C 3.900985717773438 23.57796859741211 3.901382446289062 23.57725143432617 3.901779174804688 23.5765380859375 C 3.903526306152344 23.57341003417969 3.905380249023438 23.57008743286133 3.907127380371094 23.56696319580078 C 3.907844543457031 23.56567764282227 3.908561706542969 23.56439971923828 3.909278869628906 23.56311416625977 C 3.910270690917969 23.56132888793945 3.91131591796875 23.55946350097656 3.912315368652344 23.55767822265625 C 3.913345336914062 23.55583190917969 3.914375305175781 23.55399703979492 3.9154052734375 23.55215454101562 C 3.916030883789062 23.5510368347168 3.916801452636719 23.54965972900391 3.917427062988281 23.54854202270508 C 3.918624877929688 23.54640579223633 3.919822692871094 23.54426956176758 3.9210205078125 23.54213333129883 C 3.921272277832031 23.54168701171875 3.921676635742188 23.54096221923828 3.921928405761719 23.5405158996582 C 3.949974060058594 23.49049758911133 3.978263854980469 23.44060516357422 4.006797790527344 23.39083862304688 C 4.007369995117188 23.38983917236328 4.007957458496094 23.38881301879883 4.008529663085938 23.3878173828125 C 4.009628295898438 23.38590621948242 4.010726928710938 23.38399124145508 4.011825561523438 23.382080078125 C 4.012710571289062 23.38052749633789 4.013526916503906 23.37910842895508 4.014419555664062 23.37755584716797 C 4.015312194824219 23.37600326538086 4.016204833984375 23.37445068359375 4.017097473144531 23.37289810180664 C 4.018882751464844 23.36979675292969 4.020675659179688 23.36668014526367 4.0224609375 23.36357879638672 L 4.0224609375 23.36357879638672 C 4.0224609375 23.36357879638672 4.022796630859375 23.36298751831055 4.0234375 23.36187362670898 L 4.023567199707031 23.36164855957031 C 4.023712158203125 23.36140060424805 4.023872375488281 23.36112594604492 4.024040222167969 23.3608283996582 L 4.024223327636719 23.36051559448242 C 4.024253845214844 23.36045837402344 4.0242919921875 23.36040115356445 4.024322509765625 23.3603401184082 L 4.02447509765625 23.36008071899414 C 4.024490356445312 23.36005020141602 4.024505615234375 23.36001586914062 4.024528503417969 23.3599853515625 L 4.116241455078125 23.20066833496094 Z M 5.862457275390625 20.16740036010742 L 6.729103088378906 20.66630935668945 L 6.479644775390625 21.09964370727539 L 5.612991333007812 20.60072326660156 L 5.699310302734375 20.45079040527344 C 5.699546813964844 20.45037460327148 5.699790954589844 20.44994735717773 5.700035095214844 20.44953155517578 L 5.700309753417969 20.44905853271484 C 5.772232055664062 20.32411956787109 5.862457275390625 20.16740036010742 5.862457275390625 20.16740036010742 Z M 7.608673095703125 17.13412094116211 L 8.475311279296875 17.6330451965332 L 8.225860595703125 18.06636810302734 L 7.359207153320312 17.56745529174805 L 7.418487548828125 17.46447372436523 C 7.418769836425781 17.46399307250977 7.419036865234375 17.46351623535156 7.419319152832031 17.46303558349609 L 7.419944763183594 17.46194458007812 C 7.42059326171875 17.4608268737793 7.421249389648438 17.45967864990234 7.421897888183594 17.45854949951172 L 7.422340393066406 17.45778656005859 C 7.496246337890625 17.32941055297852 7.608673095703125 17.13412094116211 7.608673095703125 17.13412094116211 Z M 9.554801940917969 14.23085784912109 L 10.3291015625 14.86367797851562 C 10.22995758056641 14.98500061035156 10.13113403320312 15.10939788818359 10.03539276123047 15.23342132568359 L 9.243812561035156 14.62235260009766 C 9.316825866699219 14.52777862548828 9.390762329101562 14.43394470214844 9.465629577636719 14.34085083007812 C 9.466110229492188 14.34025573730469 9.466514587402344 14.33975219726562 9.466995239257812 14.33915710449219 C 9.46954345703125 14.33599090576172 9.472091674804688 14.33282470703125 9.474639892578125 14.32965850830078 C 9.475357055664062 14.32876586914062 9.476058959960938 14.32789611816406 9.476783752441406 14.32700347900391 C 9.479644775390625 14.32345581054688 9.482498168945312 14.31991577148438 9.485359191894531 14.31636810302734 C 9.486160278320312 14.31537628173828 9.487174987792969 14.31411743164062 9.48797607421875 14.31311798095703 C 9.490005493164062 14.31061553955078 9.492034912109375 14.30809783935547 9.494064331054688 14.30558776855469 C 9.495750427246094 14.30350494384766 9.497451782226562 14.30140686035156 9.499137878417969 14.29932403564453 C 9.500221252441406 14.2979736328125 9.501312255859375 14.296630859375 9.502403259277344 14.2952880859375 C 9.504486083984375 14.29270935058594 9.506370544433594 14.29038238525391 9.508460998535156 14.28780364990234 C 9.508796691894531 14.28739166259766 9.509132385253906 14.28697204589844 9.509468078613281 14.28656005859375 C 9.524490356445312 14.26802825927734 9.539703369140625 14.24933624267578 9.5548095703125 14.23085784912109 Z M 12.01801300048828 11.75202178955078 L 12.66189575195312 12.51714324951172 L 12.54629516601562 12.61443328857422 C 12.46262359619141 12.68482971191406 12.37849426269531 12.75704193115234 12.29621124267578 12.82904815673828 L 11.63762664794922 12.07654571533203 C 11.63839721679688 12.07587432861328 11.63932800292969 12.07505798339844 11.64009857177734 12.07437896728516 C 11.64081573486328 12.07375335693359 11.64152526855469 12.07312774658203 11.64224243164062 12.07250213623047 C 11.71566009521484 12.00830078125 11.78974914550781 11.94455718994141 11.86425018310547 11.88150787353516 C 11.86465454101562 11.88116455078125 11.86505126953125 11.88082885742188 11.86546325683594 11.88048553466797 C 11.86800384521484 11.87833404541016 11.87063598632812 11.87610626220703 11.87317657470703 11.87395477294922 C 11.873779296875 11.87345123291016 11.87438201904297 11.87294006347656 11.87497711181641 11.8724365234375 C 11.87722778320312 11.87052917480469 11.87973022460938 11.86842346191406 11.88198089599609 11.86652374267578 C 11.88275146484375 11.86587524414062 11.88352966308594 11.86521148681641 11.88430023193359 11.86456298828125 C 11.88665008544922 11.86257934570312 11.88885498046875 11.86072540283203 11.89120483398438 11.85874176025391 C 11.89194488525391 11.85811614990234 11.89267730712891 11.85749816894531 11.89341735839844 11.85688018798828 C 11.89645385742188 11.85431671142578 11.89937591552734 11.85186004638672 11.90241241455078 11.84929656982422 L 11.90241241455078 11.84929656982422 C 11.90241241455078 11.84929656982422 12.01801300048828 11.75202178955078 12.01801300048828 11.75202178955078 Z M 14.69596862792969 9.498458862304688 L 15.33985137939453 10.26358032226562 L 14.95728302001953 10.58552551269531 L 14.31340026855469 9.820388793945312 L 14.38242340087891 9.762306213378906 C 14.38263702392578 9.762130737304688 14.38286590576172 9.761932373046875 14.38307952880859 9.761756896972656 L 14.38391876220703 9.76104736328125 C 14.38482666015625 9.760284423828125 14.38573455810547 9.759521484375 14.38665771484375 9.758743286132812 L 14.38768005371094 9.757881164550781 C 14.49894714355469 9.664253234863281 14.69596862792969 9.498458862304688 14.69596862792969 9.498458862304688 Z M 17.37392425537109 7.244888305664062 L 18.01779174804688 8.010009765625 L 17.63523864746094 8.331954956054688 L 16.99135589599609 7.566825866699219 C 16.99135589599609 7.566825866699219 17.37392425537109 7.244888305664062 17.37392425537109 7.244888305664062 Z M 20.1942253112793 5.1802978515625 L 20.70609283447266 6.03936767578125 C 20.57149124145508 6.11956787109375 20.43614959716797 6.202774047851562 20.30382537841797 6.286689758300781 L 19.76830291748047 5.442169189453125 C 19.82424545288086 5.406692504882812 19.88027954101562 5.371589660644531 19.93660354614258 5.336738586425781 C 19.93668365478516 5.336692810058594 19.93674468994141 5.336654663085938 19.93682098388672 5.33660888671875 C 19.94345474243164 5.332504272460938 19.95013046264648 5.328376770019531 19.95676803588867 5.32427978515625 C 19.95729827880859 5.323959350585938 19.95782852172852 5.323631286621094 19.95835494995117 5.32330322265625 C 19.96151351928711 5.321357727050781 19.96442031860352 5.319564819335938 19.96757888793945 5.317619323730469 C 19.96816635131836 5.317253112792969 19.96875762939453 5.31689453125 19.9693489074707 5.3165283203125 C 19.97185134887695 5.314987182617188 19.97447967529297 5.313369750976562 19.97698593139648 5.31182861328125 C 19.97776412963867 5.311347961425781 19.97854232788086 5.310874938964844 19.97932052612305 5.310394287109375 C 19.9820442199707 5.3087158203125 19.98505401611328 5.306869506835938 19.98777770996094 5.305191040039062 C 19.98884582519531 5.304542541503906 19.98991775512695 5.303878784179688 19.99098205566406 5.303230285644531 C 19.9930534362793 5.301956176757812 19.99500274658203 5.300758361816406 19.99707412719727 5.299491882324219 C 19.99828720092773 5.298744201660156 19.99950408935547 5.297996520996094 20.0007209777832 5.297256469726562 C 20.00311660766602 5.295783996582031 20.00554656982422 5.294296264648438 20.0079460144043 5.292831420898438 C 20.00944519042969 5.291908264160156 20.01094818115234 5.290985107421875 20.012451171875 5.290069580078125 C 20.01387023925781 5.289199829101562 20.01522064208984 5.288375854492188 20.01663970947266 5.287506103515625 C 20.01924514770508 5.285911560058594 20.0218505859375 5.284324645996094 20.02445220947266 5.282730102539062 C 20.02554321289062 5.282066345214844 20.02682876586914 5.281280517578125 20.02791976928711 5.280616760253906 C 20.02967071533203 5.279541015625 20.03140258789062 5.278488159179688 20.03315734863281 5.277420043945312 C 20.03414154052734 5.276817321777344 20.03518295288086 5.27618408203125 20.03616714477539 5.275581359863281 C 20.03932952880859 5.273651123046875 20.0424919128418 5.271728515625 20.045654296875 5.269798278808594 C 20.04642105102539 5.269332885742188 20.04717636108398 5.268875122070312 20.04793930053711 5.268409729003906 C 20.05403900146484 5.264694213867188 20.06015396118164 5.260978698730469 20.06625747680664 5.257270812988281 C 20.06691360473633 5.256874084472656 20.06742858886719 5.256561279296875 20.06808471679688 5.25616455078125 C 20.07189559936523 5.253852844238281 20.07567977905273 5.251556396484375 20.07949066162109 5.249244689941406 C 20.07992935180664 5.248977661132812 20.08010482788086 5.248870849609375 20.08054351806641 5.248611450195312 C 20.08245468139648 5.247451782226562 20.08437347412109 5.246284484863281 20.08628845214844 5.245132446289062 C 20.08716201782227 5.244598388671875 20.08808517456055 5.244041442871094 20.08896255493164 5.243507385253906 C 20.09208679199219 5.241622924804688 20.0952033996582 5.239738464355469 20.09832763671875 5.237846374511719 C 20.09931182861328 5.237251281738281 20.10044097900391 5.236572265625 20.1014289855957 5.235977172851562 C 20.10314178466797 5.234939575195312 20.1048698425293 5.233894348144531 20.10658264160156 5.232864379882812 C 20.10822677612305 5.23187255859375 20.1097297668457 5.230964660644531 20.11137390136719 5.229972839355469 C 20.11356735229492 5.228645324707031 20.11574172973633 5.227333068847656 20.11793899536133 5.22601318359375 C 20.11947250366211 5.225090026855469 20.12110900878906 5.224105834960938 20.12264251708984 5.223182678222656 C 20.12397384643555 5.222381591796875 20.12531280517578 5.221572875976562 20.12664413452148 5.220771789550781 C 20.1292724609375 5.219184875488281 20.13189315795898 5.217613220214844 20.13452529907227 5.216033935546875 C 20.13557815551758 5.215400695800781 20.13664627075195 5.214759826660156 20.13769912719727 5.214118957519531 C 20.14022064208984 5.212608337402344 20.14278030395508 5.211067199707031 20.14530181884766 5.209556579589844 C 20.14576721191406 5.209281921386719 20.1462287902832 5.208999633789062 20.14669036865234 5.208724975585938 C 20.14987182617188 5.206817626953125 20.15313720703125 5.204856872558594 20.15631866455078 5.202949523925781 C 20.15670013427734 5.202720642089844 20.15708923339844 5.202491760253906 20.157470703125 5.202262878417969 C 20.16964721679688 5.194969177246094 20.18203735351562 5.187568664550781 20.19422912597656 5.180305480957031 Z M 23.35553741455078 3.691001892089844 L 23.69843673706055 4.630378723144531 L 23.57865905761719 4.674102783203125 C 23.4690055847168 4.714118957519531 23.35823822021484 4.755851745605469 23.24943542480469 4.798141479492188 L 22.88718032836914 3.866065979003906 C 22.95303726196289 3.840469360351562 23.01921844482422 3.815200805664062 23.08540344238281 3.790367126464844 C 23.08566665649414 3.790267944335938 23.0859375 3.790168762207031 23.08619689941406 3.790069580078125 C 23.08956146240234 3.788810729980469 23.09294128417969 3.787544250488281 23.09630584716797 3.786285400390625 C 23.09720230102539 3.78594970703125 23.09808731079102 3.785614013671875 23.09897994995117 3.785285949707031 C 23.10186386108398 3.784202575683594 23.10452270507812 3.783210754394531 23.10740661621094 3.782135009765625 C 23.10860443115234 3.781684875488281 23.10980224609375 3.781234741210938 23.11100006103516 3.780792236328125 C 23.11340713500977 3.779891967773438 23.11589050292969 3.778961181640625 23.11829376220703 3.778068542480469 C 23.11985015869141 3.777488708496094 23.12140274047852 3.776908874511719 23.12295913696289 3.776329040527344 C 23.125 3.775566101074219 23.12717056274414 3.774757385253906 23.12921524047852 3.774002075195312 C 23.13103485107422 3.773323059082031 23.13285064697266 3.77264404296875 23.13467025756836 3.77197265625 C 23.136474609375 3.77130126953125 23.13829040527344 3.770622253417969 23.14009475708008 3.769950866699219 C 23.14209747314453 3.769210815429688 23.14410400390625 3.768463134765625 23.14611053466797 3.767723083496094 C 23.14779281616211 3.767097473144531 23.14951705932617 3.766456604003906 23.15119934082031 3.765830993652344 C 23.15330505371094 3.765052795410156 23.15540313720703 3.764274597167969 23.15750885009766 3.763496398925781 C 23.15907287597656 3.762916564941406 23.16040802001953 3.762420654296875 23.16197204589844 3.7618408203125 C 23.16429901123047 3.760986328125 23.16661071777344 3.760124206542969 23.16893768310547 3.759269714355469 C 23.17026138305664 3.758781433105469 23.17144775390625 3.758338928222656 23.17277145385742 3.757850646972656 C 23.17525482177734 3.756935119628906 23.1777458190918 3.756019592285156 23.18022918701172 3.755104064941406 C 23.18143081665039 3.754653930664062 23.18238067626953 3.754310607910156 23.18358612060547 3.753860473632812 C 23.18618774414062 3.752906799316406 23.18877792358398 3.751953125 23.19137954711914 3.750991821289062 C 23.19246673583984 3.750595092773438 23.19361877441406 3.750167846679688 23.19470596313477 3.749771118164062 C 23.19732284545898 3.748809814453125 23.19993591308594 3.747848510742188 23.20255279541016 3.74688720703125 C 23.20351791381836 3.746528625488281 23.20447158813477 3.746177673339844 23.20543670654297 3.745826721191406 C 23.20819091796875 3.74481201171875 23.21095657348633 3.743797302246094 23.21371459960938 3.742790222167969 C 23.21455764770508 3.742485046386719 23.21541213989258 3.742164611816406 23.21625518798828 3.741859436035156 C 23.21908950805664 3.740821838378906 23.22193908691406 3.739776611328125 23.22477340698242 3.738739013671875 C 23.22838973999023 3.737419128417969 23.23215484619141 3.736045837402344 23.23577117919922 3.734725952148438 L 23.23577117919922 3.734725952148438 C 23.23577117919922 3.734725952148438 23.2362174987793 3.73455810546875 23.237060546875 3.7342529296875 L 23.23720169067383 3.734199523925781 C 23.23759460449219 3.734054565429688 23.23806381225586 3.73388671875 23.23860931396484 3.733688354492188 L 23.23892974853516 3.733566284179688 C 23.23896789550781 3.733558654785156 23.23900985717773 3.733543395996094 23.23904800415039 3.733528137207031 L 23.23941040039062 3.733390808105469 C 23.23944854736328 3.733383178710938 23.23948287963867 3.733367919921875 23.23952102661133 3.733352661132812 L 23.24000930786133 3.733177185058594 C 23.24002456665039 3.733169555664062 23.24003982543945 3.733161926269531 23.24005508422852 3.733161926269531 L 23.35553741455078 3.691001892089844 Z M 26.64336013793945 2.490875244140625 L 26.98624801635742 3.430252075195312 L 26.51655960083008 3.601699829101562 L 26.17367172241211 2.662322998046875 L 26.63631439208984 2.493446350097656 C 26.63633728027344 2.493438720703125 26.63636016845703 2.493431091308594 26.63638305664062 2.493423461914062 L 26.63703536987305 2.493186950683594 C 26.63706588745117 2.493171691894531 26.63708877563477 2.4931640625 26.63711929321289 2.493156433105469 L 26.64336013793945 2.490875244140625 Z M 29.93117141723633 1.290756225585938 L 30.2740592956543 2.230133056640625 L 29.80437088012695 2.401580810546875 L 29.46148300170898 1.462196350097656 L 29.8087043762207 1.335456848144531 C 29.80898666381836 1.335357666015625 29.80928421020508 1.335243225097656 29.80956649780273 1.33514404296875 L 29.81064987182617 1.334747314453125 C 29.81100845336914 1.334617614746094 29.81136322021484 1.334487915039062 29.81171798706055 1.334358215332031 L 29.81348419189453 1.333709716796875 C 29.81391143798828 1.33355712890625 29.81433486938477 1.333404541015625 29.81476211547852 1.333244323730469 L 29.81563186645508 1.332931518554688 C 29.81593322753906 1.332817077636719 29.81623458862305 1.332710266113281 29.81653594970703 1.332595825195312 L 29.81792068481445 1.33209228515625 C 29.81856918334961 1.331855773925781 29.81919860839844 1.331626892089844 29.81984329223633 1.331390380859375 L 29.81989288330078 1.331375122070312 C 29.82038879394531 1.331192016601562 29.82089614868164 1.331008911132812 29.82139205932617 1.330825805664062 L 29.82477188110352 1.32958984375 C 29.82697296142578 1.328788757324219 29.82913589477539 1.3280029296875 29.83129119873047 1.32720947265625 L 29.8317985534668 1.3270263671875 C 29.88987731933594 1.305824279785156 29.93117141723633 1.290756225585938 29.93117141723633 1.290756225585938 Z M 33.28794860839844 0.3167343139648438 L 33.47471618652344 1.29913330078125 C 33.32078170776367 1.328399658203125 33.16513824462891 1.360237121582031 33.01208114624023 1.393753051757812 L 32.79810333251953 0.4169235229492188 C 32.79910278320312 0.4167022705078125 32.80028915405273 0.41644287109375 32.80129241943359 0.4162216186523438 C 32.80324935913086 0.4157943725585938 32.80519485473633 0.4153671264648438 32.80715560913086 0.4149398803710938 C 32.80953216552734 0.4144210815429688 32.81185913085938 0.4139175415039062 32.81423568725586 0.4133987426757812 C 32.81601333618164 0.4130096435546875 32.81779098510742 0.4126205444335938 32.8195686340332 0.4122314453125 C 32.82119369506836 0.4118804931640625 32.82284927368164 0.4115219116210938 32.8244743347168 0.411163330078125 C 32.82734680175781 0.4105453491210938 32.83020401000977 0.4099197387695312 32.83307647705078 0.4093017578125 C 32.83445358276367 0.40899658203125 32.83601379394531 0.408660888671875 32.8373908996582 0.4083633422851562 C 32.83935928344727 0.4079360961914062 32.84131240844727 0.4075164794921875 32.84328079223633 0.4070892333984375 C 32.84478378295898 0.4067611694335938 32.84606552124023 0.4064865112304688 32.84756469726562 0.406158447265625 C 32.85063934326172 0.4054946899414062 32.85371780395508 0.4048309326171875 32.85678863525391 0.4041671752929688 C 32.8581657409668 0.40386962890625 32.85955810546875 0.4035720825195312 32.86093521118164 0.4032745361328125 C 32.86765670776367 0.4018325805664062 32.87439346313477 0.4003829956054688 32.88111877441406 0.3989410400390625 C 32.88187026977539 0.3987808227539062 32.88262176513672 0.39862060546875 32.88337326049805 0.3984603881835938 C 32.88794708251953 0.3974838256835938 32.89252853393555 0.3964996337890625 32.8971061706543 0.3955307006835938 C 32.89723205566406 0.3955001831054688 32.89730072021484 0.3954849243164062 32.89742660522461 0.3954620361328125 C 32.89983367919922 0.3949432373046875 32.90222549438477 0.394439697265625 32.90463638305664 0.3939208984375 C 32.90501022338867 0.3938446044921875 32.90556335449219 0.3937301635742188 32.90594100952148 0.393646240234375 C 32.91048812866211 0.3926773071289062 32.91505432128906 0.3917083740234375 32.91960144042969 0.3907470703125 C 32.91997528076172 0.3906707763671875 32.92022323608398 0.3906173706054688 32.92060089111328 0.390533447265625 C 33.04279327392578 0.3646621704101562 33.16525650024414 0.340057373046875 33.28794860839844 0.3167343139648438 Z M 36.64976119995117 0 L 36.64976119995117 1 C 36.53015899658203 1 36.40889358520508 1.001289367675781 36.28932571411133 1.003822326660156 L 36.26811599731445 0.0040435791015625 C 36.3665657043457 0.00196075439453125 36.46481704711914 0.00067901611328125 36.5633544921875 0.00020599365234375 C 36.56338500976562 0.00020599365234375 36.56340789794922 0.00020599365234375 36.56343841552734 0.00020599365234375 C 36.56716537475586 0.00019073486328125 36.57103729248047 0.00017547607421875 36.57476043701172 0.00016021728515625 C 36.57518768310547 0.000152587890625 36.57562637329102 0.000152587890625 36.57605361938477 0.000152587890625 C 36.57965087890625 0.0001373291015625 36.58317184448242 0.0001220703125 36.58676910400391 0.00011444091796875 C 36.58731460571289 0.0001068115234375 36.58785629272461 0.0001068115234375 36.58839797973633 0.0001068115234375 C 36.59173965454102 9.1552734375e-05 36.59523391723633 8.392333984375e-05 36.59857177734375 7.62939453125e-05 C 36.59930419921875 6.866455078125e-05 36.60004043579102 6.866455078125e-05 36.60076904296875 6.866455078125e-05 C 36.60385131835938 6.103515625e-05 36.60708999633789 5.340576171875e-05 36.61017227172852 4.57763671875e-05 C 36.61116790771484 4.57763671875e-05 36.61215209960938 3.814697265625e-05 36.6131477355957 3.814697265625e-05 C 36.61597442626953 3.0517578125e-05 36.6189079284668 3.0517578125e-05 36.62173461914062 2.288818359375e-05 C 36.62297058105469 2.288818359375e-05 36.62418365478516 1.52587890625e-05 36.62541961669922 1.52587890625e-05 C 36.62824630737305 1.52587890625e-05 36.63093948364258 7.62939453125e-06 36.63376617431641 7.62939453125e-06 C 36.63505554199219 7.62939453125e-06 36.63634872436523 7.62939453125e-06 36.63763809204102 7.62939453125e-06 C 36.64162445068359 0 36.64577484130859 0 36.64976119995117 0 Z" stroke="none" fill="#8eb4e0"/></g></svg>