<svg xmlns="http://www.w3.org/2000/svg" xmlns:xlink="http://www.w3.org/1999/xlink" width="50" height="60" viewBox="0 0 50 60">
  <defs>
    <clipPath id="clip-path">
      <rect id="Rectangle_1939" data-name="Rectangle 1939" width="50" height="60" transform="translate(0 0.001)" fill="#efefef"/>
    </clipPath>
  </defs>
  <g id="Groupe_456" data-name="Groupe 456" transform="translate(0 -0.001)">
    <g id="Groupe_455" data-name="Groupe 455" clip-path="url(#clip-path)">
      <path id="Tracé_347" data-name="Tracé 347" d="M47,16H36.432A.432.432,0,0,1,36,15.568V11.323A11.215,11.215,0,0,0,26.061.05,11.013,11.013,0,0,0,14,11v4.567a.432.432,0,0,1-.432.433H3a3,3,0,0,0-3,3V57c0,.075.017.146.022.221a2.986,2.986,0,0,0,2.105,2.634A2.968,2.968,0,0,0,3,60H47a3.043,3.043,0,0,0,2.978-2.779c.005-.075.022-.146.022-.221V19a3,3,0,0,0-3-3M16,11a9.01,9.01,0,0,1,9.617-8.98A9.213,9.213,0,0,1,34,11.318v4.317a.366.366,0,0,1-.365.366H16.366A.366.366,0,0,1,16,15.635ZM48,57a1,1,0,0,1-1,1H3a1,1,0,0,1-1-1V19a1,1,0,0,1,1-1H47a1,1,0,0,1,1,1Z" fill="#efefef"/>
      <path id="Tracé_348" data-name="Tracé 348" d="M30.584,31.462l0,0a6.537,6.537,0,0,0-1.566-1.419l0,0a6.451,6.451,0,0,0-7.432.281h0a6.53,6.53,0,0,0-1.458,1.523l0,0,0,0A6.465,6.465,0,0,0,19,35.5c0,.05.006.1.007.148A6.476,6.476,0,0,0,21,40.18V44c0,.049.013.094.015.143A3.985,3.985,0,0,0,25,48h1a3.947,3.947,0,0,0,.847-.1,4,4,0,0,0,3.138-3.762c0-.049.015-.094.015-.143V40.18a6.475,6.475,0,0,0,1.992-4.531c0-.05.008-.1.008-.148a6.459,6.459,0,0,0-1.414-4.036l0,0m-.793,5.321v0a4.537,4.537,0,0,1-1.382,2.143,1.094,1.094,0,0,0-.409.825V44a2,2,0,0,1-2,2H25a2,2,0,0,1-2-2V39.753a1.1,1.1,0,0,0-.409-.825,4.544,4.544,0,0,1-1.382-2.143v0A4.3,4.3,0,0,1,22.09,32.6h0a4.459,4.459,0,0,1,6.612-.251h0A4.485,4.485,0,0,1,30,35.5a4.428,4.428,0,0,1-.209,1.282" fill="#efefef"/>
    </g>
  </g>
</svg>
